<mxfile host="app.diagrams.net" modified="2021-07-22T21:32:12.206Z" agent="5.0 (X11; Linux x86_64) AppleWebKit/537.36 (KHTML, like Gecko) Chrome/91.0.4472.114 Safari/537.36" etag="vQ2CAZgl7WWtIXqNu_J9" version="14.9.0" type="github">
  <diagram id="F_jE-BOAkrTfxv78qMfI" name="Page-1">
    <mxGraphModel dx="3220" dy="1177" grid="1" gridSize="10" guides="1" tooltips="1" connect="1" arrows="1" fold="1" page="1" pageScale="1" pageWidth="850" pageHeight="1100" math="0" shadow="0">
      <root>
        <mxCell id="0" />
        <mxCell id="1" parent="0" />
        <mxCell id="y36w_arXSWlQnjkWe3Qv-24" value="A to server" style="text;html=1;align=left;verticalAlign=middle;resizable=0;points=[];autosize=1;strokeColor=none;fontSize=14;fontStyle=1;fontFamily=Times New Roman;" parent="1" vertex="1">
          <mxGeometry x="-280" y="579.5" width="80" height="20" as="geometry" />
        </mxCell>
        <mxCell id="y36w_arXSWlQnjkWe3Qv-25" value="A to server" style="text;html=1;align=left;verticalAlign=middle;resizable=0;points=[];autosize=1;strokeColor=none;fontSize=14;fontStyle=1;fontFamily=Times New Roman;" parent="1" vertex="1">
          <mxGeometry x="-285" y="325" width="80" height="20" as="geometry" />
        </mxCell>
        <mxCell id="y36w_arXSWlQnjkWe3Qv-26" value="server to A" style="text;html=1;align=left;verticalAlign=middle;resizable=0;points=[];autosize=1;strokeColor=none;fontSize=14;fontStyle=1;fontFamily=Times New Roman;" parent="1" vertex="1">
          <mxGeometry x="-280" y="452.5" width="80" height="20" as="geometry" />
        </mxCell>
        <mxCell id="y36w_arXSWlQnjkWe3Qv-27" value="A to server" style="text;html=1;align=left;verticalAlign=middle;resizable=0;points=[];autosize=1;strokeColor=none;fontSize=14;fontStyle=1;fontFamily=Times New Roman;" parent="1" vertex="1">
          <mxGeometry x="-280" y="679.5" width="80" height="20" as="geometry" />
        </mxCell>
        <mxCell id="y36w_arXSWlQnjkWe3Qv-28" value="server to A" style="text;html=1;align=left;verticalAlign=middle;resizable=0;points=[];autosize=1;strokeColor=none;fontSize=14;fontStyle=1;fontFamily=Times New Roman;" parent="1" vertex="1">
          <mxGeometry x="-280" y="757.5" width="80" height="20" as="geometry" />
        </mxCell>
        <mxCell id="y36w_arXSWlQnjkWe3Qv-29" value="A to server" style="text;html=1;align=left;verticalAlign=middle;resizable=0;points=[];autosize=1;strokeColor=none;fontSize=14;fontStyle=1;fontFamily=Times New Roman;" parent="1" vertex="1">
          <mxGeometry x="-280" y="848.5" width="80" height="20" as="geometry" />
        </mxCell>
        <mxCell id="y36w_arXSWlQnjkWe3Qv-30" value="server to B" style="text;html=1;align=left;verticalAlign=middle;resizable=0;points=[];autosize=1;strokeColor=none;fontSize=14;fontStyle=1;fontFamily=Times New Roman;" parent="1" vertex="1">
          <mxGeometry x="-280" y="957" width="80" height="20" as="geometry" />
        </mxCell>
        <mxCell id="y36w_arXSWlQnjkWe3Qv-32" value="B to server" style="text;html=1;align=left;verticalAlign=middle;resizable=0;points=[];autosize=1;strokeColor=none;fontSize=14;fontStyle=1;fontFamily=Times New Roman;" parent="1" vertex="1">
          <mxGeometry x="-280" y="1056.5" width="80" height="20" as="geometry" />
        </mxCell>
        <mxCell id="y36w_arXSWlQnjkWe3Qv-61" value="server to A" style="text;html=1;align=left;verticalAlign=middle;resizable=0;points=[];autosize=1;strokeColor=none;fontSize=14;fontStyle=1;fontFamily=Times New Roman;" parent="1" vertex="1">
          <mxGeometry x="-280" y="1189" width="80" height="20" as="geometry" />
        </mxCell>
        <mxCell id="y36w_arXSWlQnjkWe3Qv-74" value="A to server" style="text;html=1;align=left;verticalAlign=middle;resizable=0;points=[];autosize=1;strokeColor=none;fontSize=14;fontStyle=1;fontFamily=Times New Roman;" parent="1" vertex="1">
          <mxGeometry x="-280" y="1825" width="80" height="20" as="geometry" />
        </mxCell>
        <mxCell id="y36w_arXSWlQnjkWe3Qv-87" value="&lt;span style=&quot;font-size: 14px;&quot;&gt;server to B&lt;/span&gt;" style="text;html=1;align=left;verticalAlign=middle;resizable=0;points=[];autosize=1;strokeColor=none;fontSize=14;fontStyle=1;fontFamily=Times New Roman;" parent="1" vertex="1">
          <mxGeometry x="-280" y="1950" width="80" height="20" as="geometry" />
        </mxCell>
        <mxCell id="y36w_arXSWlQnjkWe3Qv-99" value="EXAMPLE:" style="text;html=1;align=center;verticalAlign=middle;resizable=0;points=[];autosize=1;strokeColor=none;fontSize=14;fontFamily=Times New Roman;" parent="1" vertex="1">
          <mxGeometry x="-285" y="275" width="90" height="20" as="geometry" />
        </mxCell>
        <mxCell id="y36w_arXSWlQnjkWe3Qv-133" value="B to server" style="text;html=1;align=left;verticalAlign=middle;resizable=0;points=[];autosize=1;strokeColor=none;fontSize=14;fontStyle=1;fontFamily=Times New Roman;" parent="1" vertex="1">
          <mxGeometry x="-280" y="1550" width="80" height="20" as="geometry" />
        </mxCell>
        <mxCell id="y36w_arXSWlQnjkWe3Qv-134" value="server to A" style="text;html=1;align=left;verticalAlign=middle;resizable=0;points=[];autosize=1;strokeColor=none;fontSize=14;fontStyle=1;fontFamily=Times New Roman;" parent="1" vertex="1">
          <mxGeometry x="-280" y="1690" width="80" height="20" as="geometry" />
        </mxCell>
        <mxCell id="y36w_arXSWlQnjkWe3Qv-138" value="Server forward the declines toward the requester" style="text;html=1;align=left;verticalAlign=middle;resizable=0;points=[];autosize=1;strokeColor=none;fontSize=14;fontFamily=Times New Roman;" parent="1" vertex="1">
          <mxGeometry x="865" y="1693" width="290" height="20" as="geometry" />
        </mxCell>
        <mxCell id="yCbRSSfEJfGpyD3MhMj6-66" value="A to server" style="text;html=1;align=left;verticalAlign=middle;resizable=0;points=[];autosize=1;strokeColor=none;fontSize=14;fontStyle=1;fontFamily=Times New Roman;" parent="1" vertex="1">
          <mxGeometry x="-280" y="1310" width="80" height="20" as="geometry" />
        </mxCell>
        <mxCell id="yCbRSSfEJfGpyD3MhMj6-67" value="server to B" style="text;html=1;align=left;verticalAlign=middle;resizable=0;points=[];autosize=1;strokeColor=none;fontSize=14;fontStyle=1;fontFamily=Times New Roman;" parent="1" vertex="1">
          <mxGeometry x="-285" y="1420" width="80" height="20" as="geometry" />
        </mxCell>
        <mxCell id="yCbRSSfEJfGpyD3MhMj6-114" value="" style="shape=table;html=1;whiteSpace=wrap;startSize=0;container=1;collapsible=0;childLayout=tableLayout;fontFamily=Times New Roman;fontSize=14;" parent="1" vertex="1">
          <mxGeometry x="-90" y="2089.5" width="900" height="33" as="geometry" />
        </mxCell>
        <mxCell id="yCbRSSfEJfGpyD3MhMj6-115" value="" style="shape=partialRectangle;html=1;whiteSpace=wrap;collapsible=0;dropTarget=0;pointerEvents=0;fillColor=none;top=0;left=0;bottom=0;right=0;points=[[0,0.5],[1,0.5]];portConstraint=eastwest;fontFamily=Times New Roman;fontSize=14;" parent="yCbRSSfEJfGpyD3MhMj6-114" vertex="1">
          <mxGeometry width="900" height="33" as="geometry" />
        </mxCell>
        <mxCell id="yCbRSSfEJfGpyD3MhMj6-116" value="Message Type: 15" style="shape=partialRectangle;html=1;whiteSpace=wrap;connectable=0;fillColor=#fff2cc;top=0;left=0;bottom=0;right=0;overflow=hidden;strokeColor=#d6b656;fontFamily=Times New Roman;fontSize=14;" parent="yCbRSSfEJfGpyD3MhMj6-115" vertex="1">
          <mxGeometry width="150" height="33" as="geometry" />
        </mxCell>
        <mxCell id="fmLFLyb55_Ck_awDn2ng-89" value="counter_As" style="shape=partialRectangle;html=1;whiteSpace=wrap;connectable=0;fillColor=#fff2cc;top=0;left=0;bottom=0;right=0;overflow=hidden;strokeColor=#d6b656;fontFamily=Times New Roman;fontSize=14;" parent="yCbRSSfEJfGpyD3MhMj6-115" vertex="1">
          <mxGeometry x="150" width="150" height="33" as="geometry" />
        </mxCell>
        <mxCell id="yylcA2Ep-59-FiSEBhq--1" value="GCM IV" style="shape=partialRectangle;html=1;whiteSpace=wrap;connectable=0;fillColor=#fff2cc;top=0;left=0;bottom=0;right=0;overflow=hidden;strokeColor=#d6b656;fontFamily=Times New Roman;fontSize=14;" parent="yCbRSSfEJfGpyD3MhMj6-115" vertex="1">
          <mxGeometry x="300" width="150" height="33" as="geometry" />
        </mxCell>
        <mxCell id="yCbRSSfEJfGpyD3MhMj6-117" value="Sender Username" style="shape=partialRectangle;html=1;whiteSpace=wrap;connectable=0;fillColor=#b0e3e6;top=0;left=0;bottom=0;right=0;overflow=hidden;strokeColor=#0e8088;fontFamily=Times New Roman;fontSize=14;" parent="yCbRSSfEJfGpyD3MhMj6-115" vertex="1">
          <mxGeometry x="450" width="150" height="33" as="geometry" />
        </mxCell>
        <mxCell id="yCbRSSfEJfGpyD3MhMj6-118" value="Receiver username" style="shape=partialRectangle;html=1;whiteSpace=wrap;connectable=0;fillColor=#b0e3e6;top=0;left=0;bottom=0;right=0;overflow=hidden;strokeColor=#0e8088;fontFamily=Times New Roman;fontSize=14;" parent="yCbRSSfEJfGpyD3MhMj6-115" vertex="1">
          <mxGeometry x="600" width="150" height="33" as="geometry" />
        </mxCell>
        <mxCell id="yCbRSSfEJfGpyD3MhMj6-121" value="Tag" style="shape=partialRectangle;html=1;whiteSpace=wrap;connectable=0;top=0;left=0;bottom=0;right=0;overflow=hidden;fontSize=14;fontFamily=Times New Roman;" parent="yCbRSSfEJfGpyD3MhMj6-115" vertex="1">
          <mxGeometry x="750" width="150" height="33" as="geometry" />
        </mxCell>
        <mxCell id="yCbRSSfEJfGpyD3MhMj6-127" value="A to server" style="text;html=1;align=left;verticalAlign=middle;resizable=0;points=[];autosize=1;strokeColor=none;fontSize=14;fontStyle=1;fontFamily=Times New Roman;" parent="1" vertex="1">
          <mxGeometry x="-280" y="2092.5" width="80" height="20" as="geometry" />
        </mxCell>
        <mxCell id="yCbRSSfEJfGpyD3MhMj6-139" value="server to B" style="text;html=1;align=left;verticalAlign=middle;resizable=0;points=[];autosize=1;strokeColor=none;fontSize=14;fontStyle=1;fontFamily=Times New Roman;" parent="1" vertex="1">
          <mxGeometry x="-280" y="2235.5" width="80" height="20" as="geometry" />
        </mxCell>
        <mxCell id="yCbRSSfEJfGpyD3MhMj6-151" value="Client declined request to talk and sends to the server" style="text;html=1;align=left;verticalAlign=middle;resizable=0;points=[];autosize=1;strokeColor=none;fontSize=14;fontFamily=Times New Roman;" parent="1" vertex="1">
          <mxGeometry x="865" y="1551.5" width="310" height="20" as="geometry" />
        </mxCell>
        <mxCell id="fmLFLyb55_Ck_awDn2ng-1" value="Clear Messages" style="rounded=0;whiteSpace=wrap;html=1;fontFamily=Times New Roman;fontSize=14;" parent="1" vertex="1">
          <mxGeometry x="-95" y="170" width="110" height="40" as="geometry" />
        </mxCell>
        <mxCell id="fmLFLyb55_Ck_awDn2ng-2" value="Authentication" style="rounded=0;whiteSpace=wrap;html=1;fillColor=#fff2cc;strokeColor=#d6b656;fontFamily=Times New Roman;fontSize=14;" parent="1" vertex="1">
          <mxGeometry x="36" y="170" width="110" height="40" as="geometry" />
        </mxCell>
        <mxCell id="fmLFLyb55_Ck_awDn2ng-3" value="Encrypted by session key&amp;nbsp;&amp;nbsp;&lt;br style=&quot;font-size: 14px;&quot;&gt;between two clients" style="rounded=0;whiteSpace=wrap;html=1;fillColor=#d5e8d4;strokeColor=#82b366;fontFamily=Times New Roman;fontSize=14;" parent="1" vertex="1">
          <mxGeometry x="360" y="165" width="137.5" height="50" as="geometry" />
        </mxCell>
        <mxCell id="fmLFLyb55_Ck_awDn2ng-4" value="Digitally Signed by the sender, Hash computed and&amp;nbsp;&lt;br style=&quot;font-size: 13px;&quot;&gt;Encrypted by session key&amp;nbsp;&amp;nbsp;&lt;br style=&quot;font-size: 13px;&quot;&gt;between two clients&amp;nbsp;" style="rounded=0;whiteSpace=wrap;html=1;fillColor=#dae8fc;strokeColor=#6c8ebf;fontFamily=Times New Roman;fontSize=13;" parent="1" vertex="1">
          <mxGeometry x="188" y="165" width="152" height="70" as="geometry" />
        </mxCell>
        <mxCell id="y36w_arXSWlQnjkWe3Qv-89" value="" style="shape=table;html=1;whiteSpace=wrap;startSize=0;container=1;collapsible=0;childLayout=tableLayout;fontFamily=Times New Roman;fontSize=14;" parent="1" vertex="1">
          <mxGeometry x="-90" y="1546.5" width="900" height="33" as="geometry" />
        </mxCell>
        <mxCell id="y36w_arXSWlQnjkWe3Qv-90" value="" style="shape=partialRectangle;html=1;whiteSpace=wrap;collapsible=0;dropTarget=0;pointerEvents=0;fillColor=none;top=0;left=0;bottom=0;right=0;points=[[0,0.5],[1,0.5]];portConstraint=eastwest;fontFamily=Times New Roman;fontSize=14;" parent="y36w_arXSWlQnjkWe3Qv-89" vertex="1">
          <mxGeometry width="900" height="33" as="geometry" />
        </mxCell>
        <mxCell id="y36w_arXSWlQnjkWe3Qv-91" value="Message Type: 11" style="shape=partialRectangle;html=1;whiteSpace=wrap;connectable=0;fillColor=#fff2cc;top=0;left=0;bottom=0;right=0;overflow=hidden;strokeColor=#d6b656;fontFamily=Times New Roman;fontSize=14;" parent="y36w_arXSWlQnjkWe3Qv-90" vertex="1">
          <mxGeometry width="150" height="33" as="geometry" />
        </mxCell>
        <mxCell id="fmLFLyb55_Ck_awDn2ng-58" value="counter_Bs" style="shape=partialRectangle;html=1;whiteSpace=wrap;connectable=0;fillColor=#fff2cc;top=0;left=0;bottom=0;right=0;overflow=hidden;strokeColor=#d6b656;fontFamily=Times New Roman;fontSize=14;" parent="y36w_arXSWlQnjkWe3Qv-90" vertex="1">
          <mxGeometry x="150" width="150" height="33" as="geometry" />
        </mxCell>
        <mxCell id="u32h6fRL1JmX_kpmgPu2-1" value="GCM IV" style="shape=partialRectangle;html=1;whiteSpace=wrap;connectable=0;fillColor=#fff2cc;top=0;left=0;bottom=0;right=0;overflow=hidden;strokeColor=#d6b656;fontFamily=Times New Roman;fontSize=14;" parent="y36w_arXSWlQnjkWe3Qv-90" vertex="1">
          <mxGeometry x="300" width="150" height="33" as="geometry" />
        </mxCell>
        <mxCell id="y36w_arXSWlQnjkWe3Qv-92" value="Sender Username" style="shape=partialRectangle;html=1;whiteSpace=wrap;connectable=0;fillColor=#b0e3e6;top=0;left=0;bottom=0;right=0;overflow=hidden;strokeColor=#0e8088;fontFamily=Times New Roman;fontSize=14;" parent="y36w_arXSWlQnjkWe3Qv-90" vertex="1">
          <mxGeometry x="450" width="150" height="33" as="geometry" />
        </mxCell>
        <mxCell id="y36w_arXSWlQnjkWe3Qv-93" value="Receiver username" style="shape=partialRectangle;html=1;whiteSpace=wrap;connectable=0;fillColor=#b0e3e6;top=0;left=0;bottom=0;right=0;overflow=hidden;strokeColor=#0e8088;fontFamily=Times New Roman;fontSize=14;" parent="y36w_arXSWlQnjkWe3Qv-90" vertex="1">
          <mxGeometry x="600" width="150" height="33" as="geometry" />
        </mxCell>
        <mxCell id="y36w_arXSWlQnjkWe3Qv-94" value="Tag" style="shape=partialRectangle;html=1;whiteSpace=wrap;connectable=0;top=0;left=0;bottom=0;right=0;overflow=hidden;fontFamily=Times New Roman;fontSize=14;" parent="y36w_arXSWlQnjkWe3Qv-90" vertex="1">
          <mxGeometry x="750" width="150" height="33" as="geometry" />
        </mxCell>
        <mxCell id="fmLFLyb55_Ck_awDn2ng-59" value="" style="shape=table;html=1;whiteSpace=wrap;startSize=0;container=1;collapsible=0;childLayout=tableLayout;fontFamily=Times New Roman;fontSize=14;" parent="1" vertex="1">
          <mxGeometry x="-90" y="1683.5" width="900" height="33" as="geometry" />
        </mxCell>
        <mxCell id="fmLFLyb55_Ck_awDn2ng-60" value="" style="shape=partialRectangle;html=1;whiteSpace=wrap;collapsible=0;dropTarget=0;pointerEvents=0;fillColor=none;top=0;left=0;bottom=0;right=0;points=[[0,0.5],[1,0.5]];portConstraint=eastwest;fontFamily=Times New Roman;fontSize=14;" parent="fmLFLyb55_Ck_awDn2ng-59" vertex="1">
          <mxGeometry width="900" height="33" as="geometry" />
        </mxCell>
        <mxCell id="fmLFLyb55_Ck_awDn2ng-61" value="Message Type: 12" style="shape=partialRectangle;html=1;whiteSpace=wrap;connectable=0;fillColor=#fff2cc;top=0;left=0;bottom=0;right=0;overflow=hidden;strokeColor=#d6b656;fontFamily=Times New Roman;fontSize=14;" parent="fmLFLyb55_Ck_awDn2ng-60" vertex="1">
          <mxGeometry width="150" height="33" as="geometry" />
        </mxCell>
        <mxCell id="fmLFLyb55_Ck_awDn2ng-62" value="counter_Sa" style="shape=partialRectangle;html=1;whiteSpace=wrap;connectable=0;fillColor=#fff2cc;top=0;left=0;bottom=0;right=0;overflow=hidden;strokeColor=#d6b656;fontFamily=Times New Roman;fontSize=14;" parent="fmLFLyb55_Ck_awDn2ng-60" vertex="1">
          <mxGeometry x="150" width="150" height="33" as="geometry" />
        </mxCell>
        <mxCell id="u32h6fRL1JmX_kpmgPu2-2" value="GCM IV" style="shape=partialRectangle;html=1;whiteSpace=wrap;connectable=0;fillColor=#fff2cc;top=0;left=0;bottom=0;right=0;overflow=hidden;strokeColor=#d6b656;fontFamily=Times New Roman;fontSize=14;" parent="fmLFLyb55_Ck_awDn2ng-60" vertex="1">
          <mxGeometry x="300" width="150" height="33" as="geometry" />
        </mxCell>
        <mxCell id="fmLFLyb55_Ck_awDn2ng-63" value="Sender Username" style="shape=partialRectangle;html=1;whiteSpace=wrap;connectable=0;fillColor=#b0e3e6;top=0;left=0;bottom=0;right=0;overflow=hidden;strokeColor=#0e8088;fontFamily=Times New Roman;fontSize=14;" parent="fmLFLyb55_Ck_awDn2ng-60" vertex="1">
          <mxGeometry x="450" width="150" height="33" as="geometry" />
        </mxCell>
        <mxCell id="fmLFLyb55_Ck_awDn2ng-64" value="Receiver username" style="shape=partialRectangle;html=1;whiteSpace=wrap;connectable=0;fillColor=#b0e3e6;top=0;left=0;bottom=0;right=0;overflow=hidden;strokeColor=#0e8088;fontFamily=Times New Roman;fontSize=14;" parent="fmLFLyb55_Ck_awDn2ng-60" vertex="1">
          <mxGeometry x="600" width="150" height="33" as="geometry" />
        </mxCell>
        <mxCell id="fmLFLyb55_Ck_awDn2ng-65" value="Tag" style="shape=partialRectangle;html=1;whiteSpace=wrap;connectable=0;top=0;left=0;bottom=0;right=0;overflow=hidden;fontFamily=Times New Roman;fontSize=14;" parent="fmLFLyb55_Ck_awDn2ng-60" vertex="1">
          <mxGeometry x="750" width="150" height="33" as="geometry" />
        </mxCell>
        <mxCell id="fmLFLyb55_Ck_awDn2ng-75" value="" style="shape=table;html=1;whiteSpace=wrap;startSize=0;container=1;collapsible=0;childLayout=tableLayout;fontFamily=Times New Roman;fontSize=14;" parent="1" vertex="1">
          <mxGeometry x="-90" y="1937" width="1500" height="34.999999999999545" as="geometry" />
        </mxCell>
        <mxCell id="fmLFLyb55_Ck_awDn2ng-76" value="" style="shape=partialRectangle;html=1;whiteSpace=wrap;collapsible=0;dropTarget=0;pointerEvents=0;fillColor=none;top=0;left=0;bottom=0;right=0;points=[[0,0.5],[1,0.5]];portConstraint=eastwest;fontFamily=Times New Roman;fontSize=14;" parent="fmLFLyb55_Ck_awDn2ng-75" vertex="1">
          <mxGeometry width="1500" height="35" as="geometry" />
        </mxCell>
        <mxCell id="fmLFLyb55_Ck_awDn2ng-77" value="Message Type: 14" style="shape=partialRectangle;html=1;whiteSpace=wrap;connectable=0;fillColor=#fff2cc;top=0;left=0;bottom=0;right=0;overflow=hidden;strokeColor=#d6b656;fontFamily=Times New Roman;fontSize=14;" parent="fmLFLyb55_Ck_awDn2ng-76" vertex="1">
          <mxGeometry width="150" height="35" as="geometry" />
        </mxCell>
        <mxCell id="fmLFLyb55_Ck_awDn2ng-78" value="counter_Sb" style="shape=partialRectangle;html=1;whiteSpace=wrap;connectable=0;fillColor=#fff2cc;top=0;left=0;bottom=0;right=0;overflow=hidden;strokeColor=#d6b656;fontFamily=Times New Roman;fontSize=14;" parent="fmLFLyb55_Ck_awDn2ng-76" vertex="1">
          <mxGeometry x="150" width="150" height="35" as="geometry" />
        </mxCell>
        <mxCell id="ViRSmDbCG-B-MGH-1679-2" value="&lt;span&gt;GCM IV&lt;/span&gt;" style="shape=partialRectangle;html=1;whiteSpace=wrap;connectable=0;fillColor=#fff2cc;top=0;left=0;bottom=0;right=0;overflow=hidden;strokeColor=#d6b656;fontFamily=Times New Roman;fontSize=14;" parent="fmLFLyb55_Ck_awDn2ng-76" vertex="1">
          <mxGeometry x="300" width="150" height="35" as="geometry" />
        </mxCell>
        <mxCell id="fmLFLyb55_Ck_awDn2ng-79" value="counter_Ab" style="shape=partialRectangle;html=1;whiteSpace=wrap;connectable=0;fillColor=#f8cecc;top=0;left=0;bottom=0;right=0;overflow=hidden;strokeColor=#b85450;fontFamily=Times New Roman;fontSize=14;" parent="fmLFLyb55_Ck_awDn2ng-76" vertex="1">
          <mxGeometry x="450" width="150" height="35" as="geometry" />
        </mxCell>
        <mxCell id="ViRSmDbCG-B-MGH-1679-1" value="GCM IV" style="shape=partialRectangle;html=1;whiteSpace=wrap;connectable=0;fillColor=#f8cecc;top=0;left=0;bottom=0;right=0;overflow=hidden;strokeColor=#b85450;fontFamily=Times New Roman;fontSize=14;" parent="fmLFLyb55_Ck_awDn2ng-76" vertex="1">
          <mxGeometry x="600" width="150" height="35" as="geometry" />
        </mxCell>
        <mxCell id="fmLFLyb55_Ck_awDn2ng-80" value="&lt;span style=&quot;font-size: 14px&quot;&gt;Message&lt;/span&gt;" style="shape=partialRectangle;html=1;whiteSpace=wrap;connectable=0;top=0;left=0;bottom=0;right=0;overflow=hidden;fontSize=14;fillColor=#d5e8d4;strokeColor=#82b366;fontFamily=Times New Roman;" parent="fmLFLyb55_Ck_awDn2ng-76" vertex="1">
          <mxGeometry x="750" width="150" height="35" as="geometry" />
        </mxCell>
        <mxCell id="fmLFLyb55_Ck_awDn2ng-81" value="Tag" style="shape=partialRectangle;html=1;whiteSpace=wrap;connectable=0;top=0;left=0;bottom=0;right=0;overflow=hidden;fontFamily=Times New Roman;fontSize=14;" parent="fmLFLyb55_Ck_awDn2ng-76" vertex="1">
          <mxGeometry x="900" width="150" height="35" as="geometry" />
        </mxCell>
        <mxCell id="fmLFLyb55_Ck_awDn2ng-82" value="Sender Username" style="shape=partialRectangle;html=1;whiteSpace=wrap;connectable=0;fillColor=#b0e3e6;top=0;left=0;bottom=0;right=0;overflow=hidden;strokeColor=#0e8088;fontFamily=Times New Roman;fontSize=14;" parent="fmLFLyb55_Ck_awDn2ng-76" vertex="1">
          <mxGeometry x="1050" width="150" height="35" as="geometry" />
        </mxCell>
        <mxCell id="fmLFLyb55_Ck_awDn2ng-83" value="Receiver username" style="shape=partialRectangle;html=1;whiteSpace=wrap;connectable=0;fillColor=#b0e3e6;top=0;left=0;bottom=0;right=0;overflow=hidden;strokeColor=#0e8088;fontFamily=Times New Roman;fontSize=14;" parent="fmLFLyb55_Ck_awDn2ng-76" vertex="1">
          <mxGeometry x="1200" width="150" height="35" as="geometry" />
        </mxCell>
        <mxCell id="fmLFLyb55_Ck_awDn2ng-84" value="Tag" style="shape=partialRectangle;html=1;whiteSpace=wrap;connectable=0;top=0;left=0;bottom=0;right=0;overflow=hidden;fontSize=14;fontFamily=Times New Roman;" parent="fmLFLyb55_Ck_awDn2ng-76" vertex="1">
          <mxGeometry x="1350" width="150" height="35" as="geometry" />
        </mxCell>
        <mxCell id="fmLFLyb55_Ck_awDn2ng-85" value="" style="endArrow=classic;startArrow=classic;html=1;fontFamily=Times New Roman;fontSize=14;" parent="1" edge="1">
          <mxGeometry width="50" height="50" relative="1" as="geometry">
            <mxPoint x="360" y="1990" as="sourcePoint" />
            <mxPoint x="960" y="1990" as="targetPoint" />
          </mxGeometry>
        </mxCell>
        <mxCell id="fmLFLyb55_Ck_awDn2ng-86" value="Inner GCM" style="edgeLabel;html=1;align=center;verticalAlign=middle;resizable=0;points=[];fontFamily=Times New Roman;fontSize=14;" parent="fmLFLyb55_Ck_awDn2ng-85" vertex="1" connectable="0">
          <mxGeometry x="-0.1556" relative="1" as="geometry">
            <mxPoint x="47" as="offset" />
          </mxGeometry>
        </mxCell>
        <mxCell id="fmLFLyb55_Ck_awDn2ng-87" value="" style="endArrow=classic;startArrow=classic;html=1;fontFamily=Times New Roman;fontSize=14;" parent="1" edge="1">
          <mxGeometry width="50" height="50" relative="1" as="geometry">
            <mxPoint x="-90" y="2012" as="sourcePoint" />
            <mxPoint x="960" y="2012" as="targetPoint" />
          </mxGeometry>
        </mxCell>
        <mxCell id="fmLFLyb55_Ck_awDn2ng-88" value="AAD Outer GCM" style="edgeLabel;html=1;align=center;verticalAlign=middle;resizable=0;points=[];fontFamily=Times New Roman;fontSize=14;" parent="fmLFLyb55_Ck_awDn2ng-87" vertex="1" connectable="0">
          <mxGeometry x="-0.1556" relative="1" as="geometry">
            <mxPoint as="offset" />
          </mxGeometry>
        </mxCell>
        <mxCell id="fmLFLyb55_Ck_awDn2ng-90" value="" style="shape=table;html=1;whiteSpace=wrap;startSize=0;container=1;collapsible=0;childLayout=tableLayout;fontFamily=Times New Roman;fontSize=14;" parent="1" vertex="1">
          <mxGeometry x="-90" y="2229" width="900" height="33" as="geometry" />
        </mxCell>
        <mxCell id="fmLFLyb55_Ck_awDn2ng-91" value="" style="shape=partialRectangle;html=1;whiteSpace=wrap;collapsible=0;dropTarget=0;pointerEvents=0;fillColor=none;top=0;left=0;bottom=0;right=0;points=[[0,0.5],[1,0.5]];portConstraint=eastwest;fontFamily=Times New Roman;fontSize=14;" parent="fmLFLyb55_Ck_awDn2ng-90" vertex="1">
          <mxGeometry width="900" height="33" as="geometry" />
        </mxCell>
        <mxCell id="fmLFLyb55_Ck_awDn2ng-92" value="Message Type: 16" style="shape=partialRectangle;html=1;whiteSpace=wrap;connectable=0;fillColor=#fff2cc;top=0;left=0;bottom=0;right=0;overflow=hidden;strokeColor=#d6b656;fontFamily=Times New Roman;fontSize=14;" parent="fmLFLyb55_Ck_awDn2ng-91" vertex="1">
          <mxGeometry width="150" height="33" as="geometry" />
        </mxCell>
        <mxCell id="fmLFLyb55_Ck_awDn2ng-93" value="counter_Sb" style="shape=partialRectangle;html=1;whiteSpace=wrap;connectable=0;fillColor=#fff2cc;top=0;left=0;bottom=0;right=0;overflow=hidden;strokeColor=#d6b656;fontFamily=Times New Roman;fontSize=14;" parent="fmLFLyb55_Ck_awDn2ng-91" vertex="1">
          <mxGeometry x="150" width="150" height="33" as="geometry" />
        </mxCell>
        <mxCell id="yylcA2Ep-59-FiSEBhq--2" value="GCM IV" style="shape=partialRectangle;html=1;whiteSpace=wrap;connectable=0;fillColor=#fff2cc;top=0;left=0;bottom=0;right=0;overflow=hidden;strokeColor=#d6b656;fontFamily=Times New Roman;fontSize=14;" parent="fmLFLyb55_Ck_awDn2ng-91" vertex="1">
          <mxGeometry x="300" width="150" height="33" as="geometry" />
        </mxCell>
        <mxCell id="fmLFLyb55_Ck_awDn2ng-94" value="Sender Username" style="shape=partialRectangle;html=1;whiteSpace=wrap;connectable=0;fillColor=#b0e3e6;top=0;left=0;bottom=0;right=0;overflow=hidden;strokeColor=#0e8088;fontFamily=Times New Roman;fontSize=14;" parent="fmLFLyb55_Ck_awDn2ng-91" vertex="1">
          <mxGeometry x="450" width="150" height="33" as="geometry" />
        </mxCell>
        <mxCell id="fmLFLyb55_Ck_awDn2ng-95" value="Receiver username" style="shape=partialRectangle;html=1;whiteSpace=wrap;connectable=0;fillColor=#b0e3e6;top=0;left=0;bottom=0;right=0;overflow=hidden;strokeColor=#0e8088;fontFamily=Times New Roman;fontSize=14;" parent="fmLFLyb55_Ck_awDn2ng-91" vertex="1">
          <mxGeometry x="600" width="150" height="33" as="geometry" />
        </mxCell>
        <mxCell id="fmLFLyb55_Ck_awDn2ng-96" value="Tag" style="shape=partialRectangle;html=1;whiteSpace=wrap;connectable=0;top=0;left=0;bottom=0;right=0;overflow=hidden;fontSize=14;fontFamily=Times New Roman;" parent="fmLFLyb55_Ck_awDn2ng-91" vertex="1">
          <mxGeometry x="750" width="150" height="33" as="geometry" />
        </mxCell>
        <mxCell id="fmLFLyb55_Ck_awDn2ng-104" value="A to server" style="text;html=1;align=left;verticalAlign=middle;resizable=0;points=[];autosize=1;strokeColor=none;fontSize=14;fontStyle=1;fontFamily=Times New Roman;" parent="1" vertex="1">
          <mxGeometry x="-280" y="2386.5" width="80" height="20" as="geometry" />
        </mxCell>
        <mxCell id="fmLFLyb55_Ck_awDn2ng-110" value="Inner Authentication" style="rounded=0;whiteSpace=wrap;html=1;fillColor=#f8cecc;strokeColor=#b85450;fontFamily=Times New Roman;fontSize=14;" parent="1" vertex="1">
          <mxGeometry x="900" y="165" width="110" height="40" as="geometry" />
        </mxCell>
        <mxCell id="46wRRIrfo-uhjWPLOnh3-6" value="Digitally Signed by the sender, Hash computed and&amp;nbsp;&lt;br style=&quot;font-size: 13px;&quot;&gt;Encrypted by session key &lt;br style=&quot;font-size: 13px;&quot;&gt;between the client and the server" style="rounded=0;whiteSpace=wrap;html=1;fillColor=#e1d5e7;strokeColor=#9673a6;fontFamily=Times New Roman;fontSize=13;" parent="1" vertex="1">
          <mxGeometry x="520" y="165" width="175" height="70" as="geometry" />
        </mxCell>
        <mxCell id="uDIOwAxePGcVCat6WQaO-4" value="Encrypted by session key&amp;nbsp;&amp;nbsp;&lt;br style=&quot;font-size: 14px;&quot;&gt;between client and the server" style="rounded=0;whiteSpace=wrap;html=1;fillColor=#b0e3e6;strokeColor=#0e8088;fontFamily=Times New Roman;fontSize=14;" parent="1" vertex="1">
          <mxGeometry x="716.25" y="165" width="153.75" height="50" as="geometry" />
        </mxCell>
        <mxCell id="ViRSmDbCG-B-MGH-1679-3" value="" style="shape=table;html=1;whiteSpace=wrap;startSize=0;container=1;collapsible=0;childLayout=tableLayout;fontFamily=Times New Roman;fontSize=14;" parent="1" vertex="1">
          <mxGeometry x="-90" y="1825" width="1500" height="34.999999999999545" as="geometry" />
        </mxCell>
        <mxCell id="ViRSmDbCG-B-MGH-1679-4" value="" style="shape=partialRectangle;html=1;whiteSpace=wrap;collapsible=0;dropTarget=0;pointerEvents=0;fillColor=none;top=0;left=0;bottom=0;right=0;points=[[0,0.5],[1,0.5]];portConstraint=eastwest;fontFamily=Times New Roman;fontSize=14;" parent="ViRSmDbCG-B-MGH-1679-3" vertex="1">
          <mxGeometry width="1500" height="35" as="geometry" />
        </mxCell>
        <mxCell id="ViRSmDbCG-B-MGH-1679-5" value="Message Type: 13" style="shape=partialRectangle;html=1;whiteSpace=wrap;connectable=0;fillColor=#fff2cc;top=0;left=0;bottom=0;right=0;overflow=hidden;strokeColor=#d6b656;fontFamily=Times New Roman;fontSize=14;" parent="ViRSmDbCG-B-MGH-1679-4" vertex="1">
          <mxGeometry width="150" height="35" as="geometry" />
        </mxCell>
        <mxCell id="ViRSmDbCG-B-MGH-1679-6" value="counter_As" style="shape=partialRectangle;html=1;whiteSpace=wrap;connectable=0;fillColor=#fff2cc;top=0;left=0;bottom=0;right=0;overflow=hidden;strokeColor=#d6b656;fontFamily=Times New Roman;fontSize=14;" parent="ViRSmDbCG-B-MGH-1679-4" vertex="1">
          <mxGeometry x="150" width="150" height="35" as="geometry" />
        </mxCell>
        <mxCell id="ViRSmDbCG-B-MGH-1679-7" value="&lt;span&gt;GCM IV&lt;/span&gt;" style="shape=partialRectangle;html=1;whiteSpace=wrap;connectable=0;fillColor=#fff2cc;top=0;left=0;bottom=0;right=0;overflow=hidden;strokeColor=#d6b656;fontFamily=Times New Roman;fontSize=14;" parent="ViRSmDbCG-B-MGH-1679-4" vertex="1">
          <mxGeometry x="300" width="150" height="35" as="geometry" />
        </mxCell>
        <mxCell id="ViRSmDbCG-B-MGH-1679-8" value="counter_Ab" style="shape=partialRectangle;html=1;whiteSpace=wrap;connectable=0;fillColor=#f8cecc;top=0;left=0;bottom=0;right=0;overflow=hidden;strokeColor=#b85450;fontFamily=Times New Roman;fontSize=14;" parent="ViRSmDbCG-B-MGH-1679-4" vertex="1">
          <mxGeometry x="450" width="150" height="35" as="geometry" />
        </mxCell>
        <mxCell id="ViRSmDbCG-B-MGH-1679-9" value="GCM IV" style="shape=partialRectangle;html=1;whiteSpace=wrap;connectable=0;fillColor=#f8cecc;top=0;left=0;bottom=0;right=0;overflow=hidden;strokeColor=#b85450;fontFamily=Times New Roman;fontSize=14;" parent="ViRSmDbCG-B-MGH-1679-4" vertex="1">
          <mxGeometry x="600" width="150" height="35" as="geometry" />
        </mxCell>
        <mxCell id="ViRSmDbCG-B-MGH-1679-10" value="&lt;span style=&quot;font-size: 14px&quot;&gt;Message&lt;/span&gt;" style="shape=partialRectangle;html=1;whiteSpace=wrap;connectable=0;top=0;left=0;bottom=0;right=0;overflow=hidden;fontSize=14;fillColor=#d5e8d4;strokeColor=#82b366;fontFamily=Times New Roman;" parent="ViRSmDbCG-B-MGH-1679-4" vertex="1">
          <mxGeometry x="750" width="150" height="35" as="geometry" />
        </mxCell>
        <mxCell id="ViRSmDbCG-B-MGH-1679-11" value="Tag" style="shape=partialRectangle;html=1;whiteSpace=wrap;connectable=0;top=0;left=0;bottom=0;right=0;overflow=hidden;fontFamily=Times New Roman;fontSize=14;" parent="ViRSmDbCG-B-MGH-1679-4" vertex="1">
          <mxGeometry x="900" width="150" height="35" as="geometry" />
        </mxCell>
        <mxCell id="ViRSmDbCG-B-MGH-1679-12" value="Sender Username" style="shape=partialRectangle;html=1;whiteSpace=wrap;connectable=0;fillColor=#b0e3e6;top=0;left=0;bottom=0;right=0;overflow=hidden;strokeColor=#0e8088;fontFamily=Times New Roman;fontSize=14;" parent="ViRSmDbCG-B-MGH-1679-4" vertex="1">
          <mxGeometry x="1050" width="150" height="35" as="geometry" />
        </mxCell>
        <mxCell id="ViRSmDbCG-B-MGH-1679-13" value="Receiver username" style="shape=partialRectangle;html=1;whiteSpace=wrap;connectable=0;fillColor=#b0e3e6;top=0;left=0;bottom=0;right=0;overflow=hidden;strokeColor=#0e8088;fontFamily=Times New Roman;fontSize=14;" parent="ViRSmDbCG-B-MGH-1679-4" vertex="1">
          <mxGeometry x="1200" width="150" height="35" as="geometry" />
        </mxCell>
        <mxCell id="ViRSmDbCG-B-MGH-1679-14" value="Tag" style="shape=partialRectangle;html=1;whiteSpace=wrap;connectable=0;top=0;left=0;bottom=0;right=0;overflow=hidden;fontSize=14;fontFamily=Times New Roman;" parent="ViRSmDbCG-B-MGH-1679-4" vertex="1">
          <mxGeometry x="1350" width="150" height="35" as="geometry" />
        </mxCell>
        <mxCell id="ViRSmDbCG-B-MGH-1679-15" value="" style="endArrow=classic;startArrow=classic;html=1;fontFamily=Times New Roman;fontSize=14;" parent="1" edge="1">
          <mxGeometry width="50" height="50" relative="1" as="geometry">
            <mxPoint x="359.99999999999955" y="1878" as="sourcePoint" />
            <mxPoint x="959.9999999999995" y="1878" as="targetPoint" />
          </mxGeometry>
        </mxCell>
        <mxCell id="ViRSmDbCG-B-MGH-1679-16" value="Inner GCM" style="edgeLabel;html=1;align=center;verticalAlign=middle;resizable=0;points=[];fontFamily=Times New Roman;fontSize=14;" parent="ViRSmDbCG-B-MGH-1679-15" vertex="1" connectable="0">
          <mxGeometry x="-0.1556" relative="1" as="geometry">
            <mxPoint x="47" as="offset" />
          </mxGeometry>
        </mxCell>
        <mxCell id="ViRSmDbCG-B-MGH-1679-17" value="" style="endArrow=classic;startArrow=classic;html=1;fontFamily=Times New Roman;fontSize=14;" parent="1" edge="1">
          <mxGeometry width="50" height="50" relative="1" as="geometry">
            <mxPoint x="-90.00000000000045" y="1900" as="sourcePoint" />
            <mxPoint x="959.9999999999995" y="1900" as="targetPoint" />
          </mxGeometry>
        </mxCell>
        <mxCell id="ViRSmDbCG-B-MGH-1679-18" value="AAD Outer GCM" style="edgeLabel;html=1;align=center;verticalAlign=middle;resizable=0;points=[];fontFamily=Times New Roman;fontSize=14;" parent="ViRSmDbCG-B-MGH-1679-17" vertex="1" connectable="0">
          <mxGeometry x="-0.1556" relative="1" as="geometry">
            <mxPoint as="offset" />
          </mxGeometry>
        </mxCell>
        <mxCell id="ZaKLRCNy1M5HY3qA6u35-11" value="server to A" style="text;html=1;align=left;verticalAlign=middle;resizable=0;points=[];autosize=1;strokeColor=none;fontSize=14;fontStyle=1;fontFamily=Times New Roman;" parent="1" vertex="1">
          <mxGeometry x="-280" y="2504" width="80" height="20" as="geometry" />
        </mxCell>
        <mxCell id="argZhKJHXyaAZtMAxOcQ-1" value="" style="shape=table;html=1;whiteSpace=wrap;startSize=0;container=1;collapsible=0;childLayout=tableLayout;fontFamily=Times New Roman;fontSize=14;" parent="1" vertex="1">
          <mxGeometry y="310" width="360" height="33" as="geometry" />
        </mxCell>
        <mxCell id="argZhKJHXyaAZtMAxOcQ-2" value="" style="shape=partialRectangle;html=1;whiteSpace=wrap;collapsible=0;dropTarget=0;pointerEvents=0;fillColor=none;top=0;left=0;bottom=0;right=0;points=[[0,0.5],[1,0.5]];portConstraint=eastwest;fontFamily=Times New Roman;fontSize=14;" parent="argZhKJHXyaAZtMAxOcQ-1" vertex="1">
          <mxGeometry width="360" height="33" as="geometry" />
        </mxCell>
        <mxCell id="argZhKJHXyaAZtMAxOcQ-3" value="Message Type: 0&lt;br style=&quot;font-size: 14px;&quot;&gt;" style="shape=partialRectangle;html=1;whiteSpace=wrap;connectable=0;fillColor=none;top=0;left=0;bottom=0;right=0;overflow=hidden;fontFamily=Times New Roman;fontSize=14;" parent="argZhKJHXyaAZtMAxOcQ-2" vertex="1">
          <mxGeometry width="120" height="33" as="geometry" />
        </mxCell>
        <mxCell id="argZhKJHXyaAZtMAxOcQ-4" value="Username" style="shape=partialRectangle;html=1;whiteSpace=wrap;connectable=0;fillColor=none;top=0;left=0;bottom=0;right=0;overflow=hidden;fontFamily=Times New Roman;fontSize=14;" parent="argZhKJHXyaAZtMAxOcQ-2" vertex="1">
          <mxGeometry x="120" width="120" height="33" as="geometry" />
        </mxCell>
        <mxCell id="argZhKJHXyaAZtMAxOcQ-5" value="g&lt;sup style=&quot;font-size: 14px;&quot;&gt;a&lt;/sup&gt;" style="shape=partialRectangle;html=1;whiteSpace=wrap;connectable=0;fillColor=none;top=0;left=0;bottom=0;right=0;overflow=hidden;fontFamily=Times New Roman;fontSize=14;" parent="argZhKJHXyaAZtMAxOcQ-2" vertex="1">
          <mxGeometry x="240" width="120" height="33" as="geometry" />
        </mxCell>
        <mxCell id="argZhKJHXyaAZtMAxOcQ-6" value="" style="shape=table;html=1;startSize=0;container=1;collapsible=0;childLayout=tableLayout;fontFamily=Times New Roman;fontSize=14;whiteSpace=wrap;labelBorderColor=none;labelBackgroundColor=none;noLabel=1;fontColor=none;" parent="1" vertex="1">
          <mxGeometry y="376" width="840" height="33" as="geometry" />
        </mxCell>
        <mxCell id="argZhKJHXyaAZtMAxOcQ-7" value="" style="shape=partialRectangle;html=1;whiteSpace=wrap;collapsible=0;dropTarget=0;pointerEvents=0;fillColor=none;top=0;left=0;bottom=0;right=0;points=[[0,0.5],[1,0.5]];portConstraint=eastwest;fontFamily=Times New Roman;fontSize=14;" parent="argZhKJHXyaAZtMAxOcQ-6" vertex="1">
          <mxGeometry width="840" height="33" as="geometry" />
        </mxCell>
        <mxCell id="argZhKJHXyaAZtMAxOcQ-8" value="Message Type: 1" style="shape=partialRectangle;html=1;whiteSpace=wrap;connectable=0;fillColor=#fff2cc;top=0;left=0;bottom=0;right=0;overflow=hidden;strokeColor=#d6b656;fontFamily=Times New Roman;fontSize=14;" parent="argZhKJHXyaAZtMAxOcQ-7" vertex="1">
          <mxGeometry width="120" height="33" as="geometry" />
        </mxCell>
        <mxCell id="argZhKJHXyaAZtMAxOcQ-9" value="Counter&lt;sub&gt;Sa&lt;/sub&gt;" style="shape=partialRectangle;html=1;whiteSpace=wrap;connectable=0;fillColor=#fff2cc;top=0;left=0;bottom=0;right=0;overflow=hidden;strokeColor=#d6b656;fontFamily=Times New Roman;fontSize=14;" parent="argZhKJHXyaAZtMAxOcQ-7" vertex="1">
          <mxGeometry x="120" width="120" height="33" as="geometry" />
        </mxCell>
        <mxCell id="argZhKJHXyaAZtMAxOcQ-10" value="GCM IV" style="shape=partialRectangle;html=1;whiteSpace=wrap;connectable=0;fillColor=#fff2cc;top=0;left=0;bottom=0;right=0;overflow=hidden;strokeColor=#d6b656;fontFamily=Times New Roman;fontSize=14;" parent="argZhKJHXyaAZtMAxOcQ-7" vertex="1">
          <mxGeometry x="240" width="120" height="33" as="geometry" />
        </mxCell>
        <mxCell id="argZhKJHXyaAZtMAxOcQ-11" value="Server Certificate" style="shape=partialRectangle;html=1;whiteSpace=wrap;connectable=0;fillColor=#fff2cc;top=0;left=0;bottom=0;right=0;overflow=hidden;strokeColor=#d6b656;fontFamily=Times New Roman;fontSize=14;" parent="argZhKJHXyaAZtMAxOcQ-7" vertex="1">
          <mxGeometry x="360" width="120" height="33" as="geometry" />
        </mxCell>
        <mxCell id="argZhKJHXyaAZtMAxOcQ-12" value="g&lt;sup style=&quot;font-size: 14px;&quot;&gt;b&lt;/sup&gt;" style="shape=partialRectangle;html=1;whiteSpace=wrap;connectable=0;fillColor=#fff2cc;top=0;left=0;bottom=0;right=0;overflow=hidden;fontFamily=Times New Roman;strokeColor=#d6b656;fontSize=14;" parent="argZhKJHXyaAZtMAxOcQ-7" vertex="1">
          <mxGeometry x="480" width="120" height="33" as="geometry" />
        </mxCell>
        <mxCell id="argZhKJHXyaAZtMAxOcQ-13" value="&amp;lt;&lt;span&gt;H(g&lt;/span&gt;&lt;sup style=&quot;font-size: 14px&quot;&gt;a&lt;/sup&gt;&lt;span&gt;,&lt;/span&gt;&lt;sup style=&quot;font-size: 14px&quot;&gt;&amp;nbsp;&lt;/sup&gt;&lt;span&gt;g&lt;/span&gt;&lt;sup style=&quot;font-size: 14px&quot;&gt;b&lt;/sup&gt;&lt;span&gt;)&lt;/span&gt;&lt;span&gt;&amp;gt;&lt;/span&gt;&lt;sub&gt;S&lt;/sub&gt;" style="shape=partialRectangle;html=1;whiteSpace=wrap;connectable=0;top=0;left=0;bottom=0;right=0;overflow=hidden;strokeColor=#0e8088;fillColor=#b0e3e6;fontFamily=Times New Roman;fontSize=14;fontStyle=0" parent="argZhKJHXyaAZtMAxOcQ-7" vertex="1">
          <mxGeometry x="600" width="120" height="33" as="geometry" />
        </mxCell>
        <mxCell id="argZhKJHXyaAZtMAxOcQ-14" value="Tag" style="shape=partialRectangle;html=1;whiteSpace=wrap;connectable=0;top=0;left=0;bottom=0;right=0;overflow=hidden;fontFamily=Times New Roman;fontSize=14;" parent="argZhKJHXyaAZtMAxOcQ-7" vertex="1">
          <mxGeometry x="720" width="120" height="33" as="geometry" />
        </mxCell>
        <mxCell id="argZhKJHXyaAZtMAxOcQ-15" value="" style="shape=table;html=1;whiteSpace=wrap;startSize=0;container=1;collapsible=0;childLayout=tableLayout;fontFamily=Times New Roman;fontSize=14;" parent="1" vertex="1">
          <mxGeometry y="446" width="600" height="33" as="geometry" />
        </mxCell>
        <mxCell id="argZhKJHXyaAZtMAxOcQ-16" value="" style="shape=partialRectangle;html=1;whiteSpace=wrap;collapsible=0;dropTarget=0;pointerEvents=0;fillColor=none;top=0;left=0;bottom=0;right=0;points=[[0,0.5],[1,0.5]];portConstraint=eastwest;fontFamily=Times New Roman;fontSize=14;" parent="argZhKJHXyaAZtMAxOcQ-15" vertex="1">
          <mxGeometry width="600" height="33" as="geometry" />
        </mxCell>
        <mxCell id="argZhKJHXyaAZtMAxOcQ-17" value="Message Type: 2" style="shape=partialRectangle;html=1;whiteSpace=wrap;connectable=0;fillColor=#fff2cc;top=0;left=0;bottom=0;right=0;overflow=hidden;strokeColor=#d6b656;fontFamily=Times New Roman;fontSize=14;" parent="argZhKJHXyaAZtMAxOcQ-16" vertex="1">
          <mxGeometry width="120" height="33" as="geometry" />
        </mxCell>
        <mxCell id="argZhKJHXyaAZtMAxOcQ-18" value="Counter&lt;sub&gt;As&lt;/sub&gt;" style="shape=partialRectangle;html=1;whiteSpace=wrap;connectable=0;fillColor=#fff2cc;top=0;left=0;bottom=0;right=0;overflow=hidden;strokeColor=#d6b656;fontFamily=Times New Roman;fontSize=14;" parent="argZhKJHXyaAZtMAxOcQ-16" vertex="1">
          <mxGeometry x="120" width="120" height="33" as="geometry" />
        </mxCell>
        <mxCell id="argZhKJHXyaAZtMAxOcQ-19" value="GCM IV" style="shape=partialRectangle;html=1;whiteSpace=wrap;connectable=0;fillColor=#fff2cc;top=0;left=0;bottom=0;right=0;overflow=hidden;strokeColor=#d6b656;fontFamily=Times New Roman;fontSize=14;" parent="argZhKJHXyaAZtMAxOcQ-16" vertex="1">
          <mxGeometry x="240" width="122" height="33" as="geometry" />
        </mxCell>
        <mxCell id="argZhKJHXyaAZtMAxOcQ-20" value="&lt;font&gt;&amp;lt;H(g&lt;sup&gt;&lt;font style=&quot;font-size: 13px&quot;&gt;b&lt;/font&gt;&lt;/sup&gt;,&lt;sup style=&quot;font-size: 14px&quot;&gt;&amp;nbsp;&lt;/sup&gt;g&lt;sup&gt;&lt;font style=&quot;font-size: 13px&quot;&gt;a&lt;/font&gt;&lt;/sup&gt;)&lt;/font&gt;&amp;gt;&lt;sub&gt;&lt;font style=&quot;font-size: 11px&quot;&gt;S&lt;/font&gt;&lt;/sub&gt;" style="shape=partialRectangle;html=1;whiteSpace=wrap;connectable=0;fillColor=#b0e3e6;top=0;left=0;bottom=0;right=0;overflow=hidden;strokeColor=#0e8088;fontFamily=Times New Roman;fontSize=14;fontStyle=0;align=center;verticalAlign=middle;" parent="argZhKJHXyaAZtMAxOcQ-16" vertex="1">
          <mxGeometry x="362" width="118" height="33" as="geometry" />
        </mxCell>
        <mxCell id="argZhKJHXyaAZtMAxOcQ-21" value="Tag" style="shape=partialRectangle;html=1;whiteSpace=wrap;connectable=0;top=0;left=0;bottom=0;right=0;overflow=hidden;fontFamily=Times New Roman;fontSize=14;" parent="argZhKJHXyaAZtMAxOcQ-16" vertex="1">
          <mxGeometry x="480" width="120" height="33" as="geometry" />
        </mxCell>
        <mxCell id="argZhKJHXyaAZtMAxOcQ-22" value="" style="rounded=0;whiteSpace=wrap;html=1;fillColor=#fff2cc;strokeColor=#d6b656;fontFamily=Times New Roman;fontSize=14;" parent="1" vertex="1">
          <mxGeometry x="910" y="527.5" width="50" height="20" as="geometry" />
        </mxCell>
        <mxCell id="argZhKJHXyaAZtMAxOcQ-23" value="" style="rounded=0;whiteSpace=wrap;html=1;fontFamily=Times New Roman;fontSize=14;" parent="1" vertex="1">
          <mxGeometry x="910" y="477.5" width="50" height="20" as="geometry" />
        </mxCell>
        <mxCell id="argZhKJHXyaAZtMAxOcQ-24" value="" style="rounded=0;whiteSpace=wrap;html=1;fillColor=#b0e3e6;strokeColor=#0e8088;fontFamily=Times New Roman;fontSize=14;" parent="1" vertex="1">
          <mxGeometry x="910" y="577.5" width="50" height="20" as="geometry" />
        </mxCell>
        <mxCell id="argZhKJHXyaAZtMAxOcQ-25" value="&lt;div style=&quot;text-align: center&quot;&gt;&lt;span style=&quot;font-size: 14px&quot;&gt;&lt;font face=&quot;times new roman&quot;&gt;Clear Message&lt;/font&gt;&lt;/span&gt;&lt;/div&gt;" style="text;whiteSpace=wrap;html=1;fontColor=none;" parent="1" vertex="1">
          <mxGeometry x="970" y="472.5" width="110" height="30" as="geometry" />
        </mxCell>
        <mxCell id="argZhKJHXyaAZtMAxOcQ-26" value="&lt;span style=&quot;color: rgb(0, 0, 0); font-family: &amp;quot;times new roman&amp;quot;; font-size: 14px; font-style: normal; font-weight: 400; letter-spacing: normal; text-align: center; text-indent: 0px; text-transform: none; word-spacing: 0px; background-color: rgb(248, 249, 250); display: inline; float: none;&quot;&gt;Encrypted by session key&amp;nbsp;&amp;nbsp;&lt;/span&gt;&lt;br style=&quot;color: rgb(0, 0, 0); font-family: &amp;quot;times new roman&amp;quot;; font-size: 14px; font-style: normal; font-weight: 400; letter-spacing: normal; text-align: center; text-indent: 0px; text-transform: none; word-spacing: 0px; background-color: rgb(248, 249, 250);&quot;&gt;&lt;span style=&quot;color: rgb(0, 0, 0); font-family: &amp;quot;times new roman&amp;quot;; font-size: 14px; font-style: normal; font-weight: 400; letter-spacing: normal; text-align: center; text-indent: 0px; text-transform: none; word-spacing: 0px; background-color: rgb(248, 249, 250); display: inline; float: none;&quot;&gt;between client and the server&lt;/span&gt;" style="text;whiteSpace=wrap;html=1;fontColor=none;" parent="1" vertex="1">
          <mxGeometry x="970" y="567.5" width="190" height="40" as="geometry" />
        </mxCell>
        <mxCell id="argZhKJHXyaAZtMAxOcQ-27" value="&lt;span style=&quot;color: rgb(0 , 0 , 0) ; font-family: &amp;#34;times new roman&amp;#34; ; font-size: 14px ; font-style: normal ; font-weight: 400 ; letter-spacing: normal ; text-align: center ; text-indent: 0px ; text-transform: none ; word-spacing: 0px ; background-color: rgb(248 , 249 , 250) ; display: inline ; float: none&quot;&gt;Authenticated by session key&amp;nbsp;&amp;nbsp;&lt;/span&gt;&lt;br style=&quot;color: rgb(0 , 0 , 0) ; font-family: &amp;#34;times new roman&amp;#34; ; font-size: 14px ; font-style: normal ; font-weight: 400 ; letter-spacing: normal ; text-align: center ; text-indent: 0px ; text-transform: none ; word-spacing: 0px ; background-color: rgb(248 , 249 , 250)&quot;&gt;&lt;span style=&quot;color: rgb(0 , 0 , 0) ; font-family: &amp;#34;times new roman&amp;#34; ; font-size: 14px ; font-style: normal ; font-weight: 400 ; letter-spacing: normal ; text-align: center ; text-indent: 0px ; text-transform: none ; word-spacing: 0px ; background-color: rgb(248 , 249 , 250) ; display: inline ; float: none&quot;&gt;between client and the server&lt;/span&gt;" style="text;whiteSpace=wrap;html=1;fontColor=none;" parent="1" vertex="1">
          <mxGeometry x="970" y="517.5" width="190" height="40" as="geometry" />
        </mxCell>
        <mxCell id="argZhKJHXyaAZtMAxOcQ-28" value="" style="shape=table;html=1;whiteSpace=wrap;startSize=0;container=1;collapsible=0;childLayout=tableLayout;fontFamily=Times New Roman;fontSize=14;" parent="1" vertex="1">
          <mxGeometry y="598.5" width="520" height="33" as="geometry" />
        </mxCell>
        <mxCell id="argZhKJHXyaAZtMAxOcQ-29" value="" style="shape=partialRectangle;html=1;whiteSpace=wrap;collapsible=0;dropTarget=0;pointerEvents=0;fillColor=none;top=0;left=0;bottom=0;right=0;points=[[0,0.5],[1,0.5]];portConstraint=eastwest;fontFamily=Times New Roman;fontSize=14;" parent="argZhKJHXyaAZtMAxOcQ-28" vertex="1">
          <mxGeometry width="520" height="33" as="geometry" />
        </mxCell>
        <mxCell id="argZhKJHXyaAZtMAxOcQ-30" value="Message Type: 3" style="shape=partialRectangle;html=1;whiteSpace=wrap;connectable=0;fillColor=#fff2cc;top=0;left=0;bottom=0;right=0;overflow=hidden;strokeColor=#d6b656;fontFamily=Times New Roman;fontSize=14;" parent="argZhKJHXyaAZtMAxOcQ-29" vertex="1">
          <mxGeometry width="120" height="33" as="geometry" />
        </mxCell>
        <mxCell id="argZhKJHXyaAZtMAxOcQ-31" value="Counter&lt;sub&gt;As&lt;/sub&gt;" style="shape=partialRectangle;html=1;whiteSpace=wrap;connectable=0;fillColor=#fff2cc;top=0;left=0;bottom=0;right=0;overflow=hidden;strokeColor=#d6b656;fontFamily=Times New Roman;fontSize=14;" parent="argZhKJHXyaAZtMAxOcQ-29" vertex="1">
          <mxGeometry x="120" width="120" height="33" as="geometry" />
        </mxCell>
        <mxCell id="argZhKJHXyaAZtMAxOcQ-32" value="Sender Username" style="shape=partialRectangle;html=1;whiteSpace=wrap;connectable=0;fillColor=#b0e3e6;top=0;left=0;bottom=0;right=0;overflow=hidden;strokeColor=#0e8088;fontFamily=Times New Roman;fontSize=14;" parent="argZhKJHXyaAZtMAxOcQ-29" vertex="1">
          <mxGeometry x="240" width="160" height="33" as="geometry" />
        </mxCell>
        <mxCell id="argZhKJHXyaAZtMAxOcQ-33" value="Tag" style="shape=partialRectangle;html=1;whiteSpace=wrap;connectable=0;fillColor=none;top=0;left=0;bottom=0;right=0;overflow=hidden;fontFamily=Times New Roman;fontSize=14;" parent="argZhKJHXyaAZtMAxOcQ-29" vertex="1">
          <mxGeometry x="400" width="120" height="33" as="geometry" />
        </mxCell>
        <mxCell id="argZhKJHXyaAZtMAxOcQ-34" value="" style="shape=table;html=1;whiteSpace=wrap;startSize=0;container=1;collapsible=0;childLayout=tableLayout;fontFamily=Times New Roman;fontSize=14;" parent="1" vertex="1">
          <mxGeometry y="660" width="520" height="33" as="geometry" />
        </mxCell>
        <mxCell id="argZhKJHXyaAZtMAxOcQ-35" value="" style="shape=partialRectangle;html=1;whiteSpace=wrap;collapsible=0;dropTarget=0;pointerEvents=0;fillColor=none;top=0;left=0;bottom=0;right=0;points=[[0,0.5],[1,0.5]];portConstraint=eastwest;fontFamily=Times New Roman;fontSize=14;" parent="argZhKJHXyaAZtMAxOcQ-34" vertex="1">
          <mxGeometry width="520" height="33" as="geometry" />
        </mxCell>
        <mxCell id="argZhKJHXyaAZtMAxOcQ-36" value="Message Type: 4" style="shape=partialRectangle;html=1;whiteSpace=wrap;connectable=0;fillColor=#fff2cc;top=0;left=0;bottom=0;right=0;overflow=hidden;strokeColor=#d6b656;fontFamily=Times New Roman;fontSize=14;" parent="argZhKJHXyaAZtMAxOcQ-35" vertex="1">
          <mxGeometry width="120" height="33" as="geometry" />
        </mxCell>
        <mxCell id="argZhKJHXyaAZtMAxOcQ-37" value="Counter&lt;sub&gt;Sa&lt;/sub&gt;" style="shape=partialRectangle;html=1;whiteSpace=wrap;connectable=0;fillColor=#fff2cc;top=0;left=0;bottom=0;right=0;overflow=hidden;strokeColor=#d6b656;fontFamily=Times New Roman;fontSize=14;" parent="argZhKJHXyaAZtMAxOcQ-35" vertex="1">
          <mxGeometry x="120" width="120" height="33" as="geometry" />
        </mxCell>
        <mxCell id="argZhKJHXyaAZtMAxOcQ-38" value="List of Active Usernames" style="shape=partialRectangle;html=1;whiteSpace=wrap;connectable=0;fillColor=#b0e3e6;top=0;left=0;bottom=0;right=0;overflow=hidden;strokeColor=#0e8088;fontFamily=Times New Roman;fontSize=14;" parent="argZhKJHXyaAZtMAxOcQ-35" vertex="1">
          <mxGeometry x="240" width="160" height="33" as="geometry" />
        </mxCell>
        <mxCell id="argZhKJHXyaAZtMAxOcQ-39" value="Tag" style="shape=partialRectangle;html=1;whiteSpace=wrap;connectable=0;fillColor=none;top=0;left=0;bottom=0;right=0;overflow=hidden;fontFamily=Times New Roman;fontSize=14;" parent="argZhKJHXyaAZtMAxOcQ-35" vertex="1">
          <mxGeometry x="400" width="120" height="33" as="geometry" />
        </mxCell>
        <mxCell id="argZhKJHXyaAZtMAxOcQ-40" value="" style="shape=table;html=1;whiteSpace=wrap;startSize=0;container=1;collapsible=0;childLayout=tableLayout;fontFamily=Times New Roman;fontSize=14;" parent="1" vertex="1">
          <mxGeometry y="757.5" width="840" height="33" as="geometry" />
        </mxCell>
        <mxCell id="argZhKJHXyaAZtMAxOcQ-41" value="" style="shape=partialRectangle;html=1;whiteSpace=wrap;collapsible=0;dropTarget=0;pointerEvents=0;fillColor=none;top=0;left=0;bottom=0;right=0;points=[[0,0.5],[1,0.5]];portConstraint=eastwest;fontFamily=Times New Roman;fontSize=14;" parent="argZhKJHXyaAZtMAxOcQ-40" vertex="1">
          <mxGeometry width="840" height="33" as="geometry" />
        </mxCell>
        <mxCell id="argZhKJHXyaAZtMAxOcQ-42" value="Message Type: 5" style="shape=partialRectangle;html=1;whiteSpace=wrap;connectable=0;fillColor=#fff2cc;top=0;left=0;bottom=0;right=0;overflow=hidden;strokeColor=#d6b656;fontFamily=Times New Roman;fontSize=14;" parent="argZhKJHXyaAZtMAxOcQ-41" vertex="1">
          <mxGeometry width="120" height="33" as="geometry" />
        </mxCell>
        <mxCell id="argZhKJHXyaAZtMAxOcQ-43" value="Counter&lt;sub&gt;As&lt;/sub&gt;" style="shape=partialRectangle;html=1;whiteSpace=wrap;connectable=0;fillColor=#fff2cc;top=0;left=0;bottom=0;right=0;overflow=hidden;strokeColor=#d6b656;fontFamily=Times New Roman;fontSize=14;" parent="argZhKJHXyaAZtMAxOcQ-41" vertex="1">
          <mxGeometry x="120" width="120" height="33" as="geometry" />
        </mxCell>
        <mxCell id="argZhKJHXyaAZtMAxOcQ-44" value="GCM IV" style="shape=partialRectangle;html=1;whiteSpace=wrap;connectable=0;fillColor=#fff2cc;top=0;left=0;bottom=0;right=0;overflow=hidden;strokeColor=#d6b656;fontFamily=Times New Roman;fontSize=14;" parent="argZhKJHXyaAZtMAxOcQ-41" vertex="1">
          <mxGeometry x="240" width="120" height="33" as="geometry" />
        </mxCell>
        <mxCell id="argZhKJHXyaAZtMAxOcQ-45" value="g&lt;sup style=&quot;font-size: 14px;&quot;&gt;a&#39;&lt;/sup&gt;" style="shape=partialRectangle;html=1;whiteSpace=wrap;connectable=0;fillColor=#fff2cc;top=0;left=0;bottom=0;right=0;overflow=hidden;strokeColor=#d6b656;fontFamily=Times New Roman;fontSize=14;" parent="argZhKJHXyaAZtMAxOcQ-41" vertex="1">
          <mxGeometry x="360" width="120" height="33" as="geometry" />
        </mxCell>
        <mxCell id="argZhKJHXyaAZtMAxOcQ-46" value="Sender Username" style="shape=partialRectangle;html=1;whiteSpace=wrap;connectable=0;fillColor=#b0e3e6;top=0;left=0;bottom=0;right=0;overflow=hidden;strokeColor=#0e8088;fontFamily=Times New Roman;fontSize=14;" parent="argZhKJHXyaAZtMAxOcQ-41" vertex="1">
          <mxGeometry x="480" width="120" height="33" as="geometry" />
        </mxCell>
        <mxCell id="argZhKJHXyaAZtMAxOcQ-47" value="Receiver Username" style="shape=partialRectangle;html=1;whiteSpace=wrap;connectable=0;fillColor=#b0e3e6;top=0;left=0;bottom=0;right=0;overflow=hidden;strokeColor=#0e8088;fontFamily=Times New Roman;fontSize=14;" parent="argZhKJHXyaAZtMAxOcQ-41" vertex="1">
          <mxGeometry x="600" width="120" height="33" as="geometry" />
        </mxCell>
        <mxCell id="argZhKJHXyaAZtMAxOcQ-48" value="Tag" style="shape=partialRectangle;html=1;whiteSpace=wrap;connectable=0;top=0;left=0;bottom=0;right=0;overflow=hidden;fontSize=14;fontFamily=Times New Roman;" parent="argZhKJHXyaAZtMAxOcQ-41" vertex="1">
          <mxGeometry x="720" width="120" height="33" as="geometry" />
        </mxCell>
        <mxCell id="argZhKJHXyaAZtMAxOcQ-49" value="" style="shape=table;html=1;whiteSpace=wrap;startSize=0;container=1;collapsible=0;childLayout=tableLayout;fontFamily=Times New Roman;fontSize=14;" parent="1" vertex="1">
          <mxGeometry y="832.5" width="840" height="33" as="geometry" />
        </mxCell>
        <mxCell id="argZhKJHXyaAZtMAxOcQ-50" value="" style="shape=partialRectangle;html=1;whiteSpace=wrap;collapsible=0;dropTarget=0;pointerEvents=0;fillColor=none;top=0;left=0;bottom=0;right=0;points=[[0,0.5],[1,0.5]];portConstraint=eastwest;fontFamily=Times New Roman;fontSize=14;" parent="argZhKJHXyaAZtMAxOcQ-49" vertex="1">
          <mxGeometry width="840" height="33" as="geometry" />
        </mxCell>
        <mxCell id="argZhKJHXyaAZtMAxOcQ-51" value="Message Type: 6" style="shape=partialRectangle;html=1;whiteSpace=wrap;connectable=0;fillColor=#fff2cc;top=0;left=0;bottom=0;right=0;overflow=hidden;strokeColor=#d6b656;fontFamily=Times New Roman;fontSize=14;" parent="argZhKJHXyaAZtMAxOcQ-50" vertex="1">
          <mxGeometry width="120" height="33" as="geometry" />
        </mxCell>
        <mxCell id="argZhKJHXyaAZtMAxOcQ-52" value="Counter&lt;sub&gt;Sb&lt;/sub&gt;" style="shape=partialRectangle;html=1;whiteSpace=wrap;connectable=0;fillColor=#fff2cc;top=0;left=0;bottom=0;right=0;overflow=hidden;strokeColor=#d6b656;fontFamily=Times New Roman;fontSize=14;" parent="argZhKJHXyaAZtMAxOcQ-50" vertex="1">
          <mxGeometry x="120" width="120" height="33" as="geometry" />
        </mxCell>
        <mxCell id="argZhKJHXyaAZtMAxOcQ-53" value="GCM IV" style="shape=partialRectangle;html=1;whiteSpace=wrap;connectable=0;fillColor=#fff2cc;top=0;left=0;bottom=0;right=0;overflow=hidden;strokeColor=#d6b656;fontFamily=Times New Roman;fontSize=14;" parent="argZhKJHXyaAZtMAxOcQ-50" vertex="1">
          <mxGeometry x="240" width="120" height="33" as="geometry" />
        </mxCell>
        <mxCell id="argZhKJHXyaAZtMAxOcQ-54" value="g&lt;sup style=&quot;font-size: 14px;&quot;&gt;a&#39;&lt;/sup&gt;" style="shape=partialRectangle;html=1;whiteSpace=wrap;connectable=0;fillColor=#fff2cc;top=0;left=0;bottom=0;right=0;overflow=hidden;strokeColor=#d6b656;fontFamily=Times New Roman;fontSize=14;" parent="argZhKJHXyaAZtMAxOcQ-50" vertex="1">
          <mxGeometry x="360" width="120" height="33" as="geometry" />
        </mxCell>
        <mxCell id="argZhKJHXyaAZtMAxOcQ-55" value="Sender Username" style="shape=partialRectangle;html=1;whiteSpace=wrap;connectable=0;fillColor=#b0e3e6;top=0;left=0;bottom=0;right=0;overflow=hidden;strokeColor=#0e8088;fontFamily=Times New Roman;fontSize=14;" parent="argZhKJHXyaAZtMAxOcQ-50" vertex="1">
          <mxGeometry x="480" width="120" height="33" as="geometry" />
        </mxCell>
        <mxCell id="argZhKJHXyaAZtMAxOcQ-56" value="Receiver username" style="shape=partialRectangle;html=1;whiteSpace=wrap;connectable=0;fillColor=#b0e3e6;top=0;left=0;bottom=0;right=0;overflow=hidden;strokeColor=#0e8088;fontFamily=Times New Roman;fontSize=14;" parent="argZhKJHXyaAZtMAxOcQ-50" vertex="1">
          <mxGeometry x="600" width="120" height="33" as="geometry" />
        </mxCell>
        <mxCell id="argZhKJHXyaAZtMAxOcQ-57" value="Tag" style="shape=partialRectangle;html=1;whiteSpace=wrap;connectable=0;top=0;left=0;bottom=0;right=0;overflow=hidden;fontSize=14;fontFamily=Times New Roman;" parent="argZhKJHXyaAZtMAxOcQ-50" vertex="1">
          <mxGeometry x="720" width="120" height="33" as="geometry" />
        </mxCell>
        <mxCell id="L5WIdO67JTkPFgUuBvbq-1" value="" style="rounded=0;whiteSpace=wrap;html=1;fillColor=#fff2cc;strokeColor=#d6b656;fontFamily=Times New Roman;fontSize=14;" parent="1" vertex="1">
          <mxGeometry x="600" y="2575" width="50" height="20" as="geometry" />
        </mxCell>
        <mxCell id="L5WIdO67JTkPFgUuBvbq-2" value="" style="rounded=0;whiteSpace=wrap;html=1;fontFamily=Times New Roman;fontSize=14;" parent="1" vertex="1">
          <mxGeometry x="600" y="2525" width="50" height="20" as="geometry" />
        </mxCell>
        <mxCell id="L5WIdO67JTkPFgUuBvbq-3" value="" style="rounded=0;whiteSpace=wrap;html=1;fillColor=#b0e3e6;strokeColor=#0e8088;fontFamily=Times New Roman;fontSize=14;" parent="1" vertex="1">
          <mxGeometry x="600" y="2620" width="50" height="20" as="geometry" />
        </mxCell>
        <mxCell id="L5WIdO67JTkPFgUuBvbq-4" value="&lt;div style=&quot;text-align: center&quot;&gt;&lt;span style=&quot;font-size: 14px&quot;&gt;&lt;font face=&quot;times new roman&quot;&gt;Clear Message&lt;/font&gt;&lt;/span&gt;&lt;/div&gt;" style="text;whiteSpace=wrap;html=1;fontColor=none;" parent="1" vertex="1">
          <mxGeometry x="660" y="2520" width="110" height="30" as="geometry" />
        </mxCell>
        <mxCell id="L5WIdO67JTkPFgUuBvbq-5" value="&lt;div style=&quot;text-align: center&quot;&gt;&lt;span style=&quot;font-size: 14px&quot;&gt;&lt;font face=&quot;times new roman&quot;&gt;Authenticated by session key&lt;/font&gt;&lt;/span&gt;&lt;/div&gt;&lt;div style=&quot;text-align: center&quot;&gt;&lt;span style=&quot;font-size: 14px&quot;&gt;&lt;font face=&quot;times new roman&quot;&gt;between client and the server&lt;/font&gt;&lt;/span&gt;&lt;/div&gt;" style="text;whiteSpace=wrap;html=1;fontColor=none;" parent="1" vertex="1">
          <mxGeometry x="660" y="2565" width="190" height="40" as="geometry" />
        </mxCell>
        <mxCell id="L5WIdO67JTkPFgUuBvbq-6" value="&lt;span style=&quot;color: rgb(0, 0, 0); font-family: &amp;quot;times new roman&amp;quot;; font-size: 14px; font-style: normal; font-weight: 400; letter-spacing: normal; text-align: center; text-indent: 0px; text-transform: none; word-spacing: 0px; background-color: rgb(248, 249, 250); display: inline; float: none;&quot;&gt;Encrypted by session key&amp;nbsp;&amp;nbsp;&lt;/span&gt;&lt;br style=&quot;color: rgb(0, 0, 0); font-family: &amp;quot;times new roman&amp;quot;; font-size: 14px; font-style: normal; font-weight: 400; letter-spacing: normal; text-align: center; text-indent: 0px; text-transform: none; word-spacing: 0px; background-color: rgb(248, 249, 250);&quot;&gt;&lt;span style=&quot;color: rgb(0, 0, 0); font-family: &amp;quot;times new roman&amp;quot;; font-size: 14px; font-style: normal; font-weight: 400; letter-spacing: normal; text-align: center; text-indent: 0px; text-transform: none; word-spacing: 0px; background-color: rgb(248, 249, 250); display: inline; float: none;&quot;&gt;between client and the server&lt;/span&gt;" style="text;whiteSpace=wrap;html=1;fontColor=none;" parent="1" vertex="1">
          <mxGeometry x="660" y="2610" width="190" height="40" as="geometry" />
        </mxCell>
        <mxCell id="L5WIdO67JTkPFgUuBvbq-7" value="" style="shape=table;html=1;whiteSpace=wrap;startSize=0;container=1;collapsible=0;childLayout=tableLayout;fontFamily=Times New Roman;fontSize=14;" parent="1" vertex="1">
          <mxGeometry y="2340" width="600" height="33" as="geometry" />
        </mxCell>
        <mxCell id="L5WIdO67JTkPFgUuBvbq-8" value="" style="shape=partialRectangle;html=1;whiteSpace=wrap;collapsible=0;dropTarget=0;pointerEvents=0;fillColor=none;top=0;left=0;bottom=0;right=0;points=[[0,0.5],[1,0.5]];portConstraint=eastwest;fontFamily=Times New Roman;fontSize=14;" parent="L5WIdO67JTkPFgUuBvbq-7" vertex="1">
          <mxGeometry width="600" height="33" as="geometry" />
        </mxCell>
        <mxCell id="L5WIdO67JTkPFgUuBvbq-9" value="Message Type: 17" style="shape=partialRectangle;html=1;whiteSpace=wrap;connectable=0;fillColor=#fff2cc;top=0;left=0;bottom=0;right=0;overflow=hidden;strokeColor=#d6b656;fontFamily=Times New Roman;fontSize=14;" parent="L5WIdO67JTkPFgUuBvbq-8" vertex="1">
          <mxGeometry width="120" height="33" as="geometry" />
        </mxCell>
        <mxCell id="L5WIdO67JTkPFgUuBvbq-10" value="Counter&lt;sub&gt;As&lt;/sub&gt;" style="shape=partialRectangle;html=1;whiteSpace=wrap;connectable=0;fillColor=#fff2cc;top=0;left=0;bottom=0;right=0;overflow=hidden;strokeColor=#d6b656;fontFamily=Times New Roman;fontSize=14;" parent="L5WIdO67JTkPFgUuBvbq-8" vertex="1">
          <mxGeometry x="120" width="120" height="33" as="geometry" />
        </mxCell>
        <mxCell id="L5WIdO67JTkPFgUuBvbq-11" value="GCM IV" style="shape=partialRectangle;html=1;whiteSpace=wrap;connectable=0;fillColor=#fff2cc;top=0;left=0;bottom=0;right=0;overflow=hidden;strokeColor=#d6b656;fontFamily=Times New Roman;fontSize=14;" parent="L5WIdO67JTkPFgUuBvbq-8" vertex="1">
          <mxGeometry x="240" width="120" height="33" as="geometry" />
        </mxCell>
        <mxCell id="L5WIdO67JTkPFgUuBvbq-12" value="Sender Username" style="shape=partialRectangle;html=1;whiteSpace=wrap;connectable=0;fillColor=#b0e3e6;top=0;left=0;bottom=0;right=0;overflow=hidden;strokeColor=#0e8088;fontFamily=Times New Roman;fontSize=14;" parent="L5WIdO67JTkPFgUuBvbq-8" vertex="1">
          <mxGeometry x="360" width="120" height="33" as="geometry" />
        </mxCell>
        <mxCell id="L5WIdO67JTkPFgUuBvbq-13" value="Tag" style="shape=partialRectangle;html=1;whiteSpace=wrap;connectable=0;top=0;left=0;bottom=0;right=0;overflow=hidden;fontSize=14;fontFamily=Times New Roman;" parent="L5WIdO67JTkPFgUuBvbq-8" vertex="1">
          <mxGeometry x="480" width="120" height="33" as="geometry" />
        </mxCell>
        <mxCell id="L5WIdO67JTkPFgUuBvbq-14" value="" style="shape=table;html=1;whiteSpace=wrap;startSize=0;container=1;collapsible=0;childLayout=tableLayout;fontFamily=Times New Roman;fontSize=14;" parent="1" vertex="1">
          <mxGeometry y="2460" width="600" height="33" as="geometry" />
        </mxCell>
        <mxCell id="L5WIdO67JTkPFgUuBvbq-15" value="" style="shape=partialRectangle;html=1;whiteSpace=wrap;collapsible=0;dropTarget=0;pointerEvents=0;fillColor=none;top=0;left=0;bottom=0;right=0;points=[[0,0.5],[1,0.5]];portConstraint=eastwest;fontFamily=Times New Roman;fontSize=14;" parent="L5WIdO67JTkPFgUuBvbq-14" vertex="1">
          <mxGeometry width="600" height="33" as="geometry" />
        </mxCell>
        <mxCell id="L5WIdO67JTkPFgUuBvbq-16" value="Message Type: e" style="shape=partialRectangle;html=1;whiteSpace=wrap;connectable=0;fillColor=#fff2cc;top=0;left=0;bottom=0;right=0;overflow=hidden;strokeColor=#d6b656;fontFamily=Times New Roman;fontSize=14;" parent="L5WIdO67JTkPFgUuBvbq-15" vertex="1">
          <mxGeometry width="120" height="33" as="geometry" />
        </mxCell>
        <mxCell id="L5WIdO67JTkPFgUuBvbq-17" value="Counter&lt;sub&gt;Sa&lt;/sub&gt;" style="shape=partialRectangle;html=1;whiteSpace=wrap;connectable=0;fillColor=#fff2cc;top=0;left=0;bottom=0;right=0;overflow=hidden;strokeColor=#d6b656;fontFamily=Times New Roman;fontSize=14;" parent="L5WIdO67JTkPFgUuBvbq-15" vertex="1">
          <mxGeometry x="120" width="120" height="33" as="geometry" />
        </mxCell>
        <mxCell id="L5WIdO67JTkPFgUuBvbq-18" value="GCM IV" style="shape=partialRectangle;html=1;whiteSpace=wrap;connectable=0;fillColor=#fff2cc;top=0;left=0;bottom=0;right=0;overflow=hidden;strokeColor=#d6b656;fontFamily=Times New Roman;fontSize=14;" parent="L5WIdO67JTkPFgUuBvbq-15" vertex="1">
          <mxGeometry x="240" width="120" height="33" as="geometry" />
        </mxCell>
        <mxCell id="L5WIdO67JTkPFgUuBvbq-19" value="Error Message" style="shape=partialRectangle;html=1;whiteSpace=wrap;connectable=0;fillColor=#b0e3e6;top=0;left=0;bottom=0;right=0;overflow=hidden;strokeColor=#0e8088;fontFamily=Times New Roman;fontSize=14;" parent="L5WIdO67JTkPFgUuBvbq-15" vertex="1">
          <mxGeometry x="360" width="120" height="33" as="geometry" />
        </mxCell>
        <mxCell id="L5WIdO67JTkPFgUuBvbq-20" value="Tag" style="shape=partialRectangle;html=1;whiteSpace=wrap;connectable=0;top=0;left=0;bottom=0;right=0;overflow=hidden;fontSize=14;fontFamily=Times New Roman;" parent="L5WIdO67JTkPFgUuBvbq-15" vertex="1">
          <mxGeometry x="480" width="120" height="33" as="geometry" />
        </mxCell>
        <mxCell id="JfP8cFNl_0PdkYqR2XCQ-4" value="" style="shape=table;html=1;whiteSpace=wrap;startSize=0;container=1;collapsible=0;childLayout=tableLayout;fontFamily=Times New Roman;fontSize=14;" vertex="1" parent="1">
          <mxGeometry y="1070" width="1440" height="33" as="geometry" />
        </mxCell>
        <mxCell id="JfP8cFNl_0PdkYqR2XCQ-5" value="" style="shape=partialRectangle;html=1;whiteSpace=wrap;collapsible=0;dropTarget=0;pointerEvents=0;fillColor=none;top=0;left=0;bottom=0;right=0;points=[[0,0.5],[1,0.5]];portConstraint=eastwest;fontFamily=Times New Roman;fontSize=14;" vertex="1" parent="JfP8cFNl_0PdkYqR2XCQ-4">
          <mxGeometry width="1440" height="33" as="geometry" />
        </mxCell>
        <mxCell id="JfP8cFNl_0PdkYqR2XCQ-6" value="Message Type: 8" style="shape=partialRectangle;html=1;whiteSpace=wrap;connectable=0;fillColor=#fff2cc;top=0;left=0;bottom=0;right=0;overflow=hidden;strokeColor=#d6b656;fontFamily=Times New Roman;fontSize=14;" vertex="1" parent="JfP8cFNl_0PdkYqR2XCQ-5">
          <mxGeometry width="120" height="33" as="geometry" />
        </mxCell>
        <mxCell id="JfP8cFNl_0PdkYqR2XCQ-7" value="Counter&lt;sub&gt;Sa&lt;/sub&gt;" style="shape=partialRectangle;html=1;whiteSpace=wrap;connectable=0;fillColor=#fff2cc;top=0;left=0;bottom=0;right=0;overflow=hidden;strokeColor=#d6b656;fontFamily=Times New Roman;fontSize=14;" vertex="1" parent="JfP8cFNl_0PdkYqR2XCQ-5">
          <mxGeometry x="120" width="120" height="33" as="geometry" />
        </mxCell>
        <mxCell id="JfP8cFNl_0PdkYqR2XCQ-8" value="GCM IV" style="shape=partialRectangle;html=1;whiteSpace=wrap;connectable=0;fillColor=#fff2cc;top=0;left=0;bottom=0;right=0;overflow=hidden;strokeColor=#d6b656;fontFamily=Times New Roman;fontSize=14;" vertex="1" parent="JfP8cFNl_0PdkYqR2XCQ-5">
          <mxGeometry x="240" width="120" height="33" as="geometry" />
        </mxCell>
        <mxCell id="JfP8cFNl_0PdkYqR2XCQ-9" value="g&lt;span style=&quot;font-size: 14px;&quot;&gt;&lt;sup style=&quot;font-size: 14px;&quot;&gt;b&#39;&lt;/sup&gt;&lt;/span&gt;" style="shape=partialRectangle;html=1;whiteSpace=wrap;connectable=0;top=0;left=0;bottom=0;right=0;overflow=hidden;fillColor=#fff2cc;strokeColor=#d6b656;fontFamily=Times New Roman;fontSize=14;" vertex="1" parent="JfP8cFNl_0PdkYqR2XCQ-5">
          <mxGeometry x="360" width="120" height="33" as="geometry" />
        </mxCell>
        <mxCell id="JfP8cFNl_0PdkYqR2XCQ-10" value="RSA Public Key B" style="shape=partialRectangle;html=1;whiteSpace=wrap;connectable=0;fillColor=#fff2cc;top=0;left=0;bottom=0;right=0;overflow=hidden;strokeColor=#d6b656;fontFamily=Times New Roman;fontSize=14;" vertex="1" parent="JfP8cFNl_0PdkYqR2XCQ-5">
          <mxGeometry x="480" width="120" height="33" as="geometry" />
        </mxCell>
        <mxCell id="JfP8cFNl_0PdkYqR2XCQ-11" value="Counter&lt;sub&gt;Ba&lt;/sub&gt;" style="shape=partialRectangle;html=1;whiteSpace=wrap;connectable=0;top=0;left=0;bottom=0;right=0;overflow=hidden;fontSize=14;fillColor=#f8cecc;strokeColor=#b85450;fontFamily=Times New Roman;" vertex="1" parent="JfP8cFNl_0PdkYqR2XCQ-5">
          <mxGeometry x="600" width="120" height="33" as="geometry" />
        </mxCell>
        <mxCell id="JfP8cFNl_0PdkYqR2XCQ-12" value="&lt;span&gt;GCM IV&lt;/span&gt;" style="shape=partialRectangle;html=1;whiteSpace=wrap;connectable=0;top=0;left=0;bottom=0;right=0;overflow=hidden;fontSize=14;fillColor=#f8cecc;strokeColor=#b85450;fontFamily=Times New Roman;" vertex="1" parent="JfP8cFNl_0PdkYqR2XCQ-5">
          <mxGeometry x="720" width="120" height="33" as="geometry" />
        </mxCell>
        <mxCell id="JfP8cFNl_0PdkYqR2XCQ-13" value="&amp;lt;&lt;span&gt;H(g&lt;/span&gt;&lt;sup style=&quot;font-size: 14px&quot;&gt;a&#39;&lt;/sup&gt;&lt;span style=&quot;font-size: 14px&quot;&gt;,&amp;nbsp;&lt;/span&gt;&lt;span&gt;g&lt;/span&gt;&lt;sup style=&quot;font-size: 14px&quot;&gt;b&#39;&lt;/sup&gt;&lt;font&gt;&lt;font style=&quot;font-size: 14px&quot;&gt;)&lt;/font&gt;&lt;/font&gt;&amp;gt;&lt;sub style=&quot;font-size: 11px&quot;&gt;B&lt;/sub&gt;" style="shape=partialRectangle;html=1;whiteSpace=wrap;connectable=0;top=0;left=0;bottom=0;right=0;overflow=hidden;fontSize=14;fillColor=#d5e8d4;strokeColor=#82b366;fontFamily=Times New Roman;" vertex="1" parent="JfP8cFNl_0PdkYqR2XCQ-5">
          <mxGeometry x="840" width="120" height="33" as="geometry" />
        </mxCell>
        <mxCell id="JfP8cFNl_0PdkYqR2XCQ-14" value="Tag" style="shape=partialRectangle;html=1;whiteSpace=wrap;connectable=0;top=0;left=0;bottom=0;right=0;overflow=hidden;fontSize=14;fontFamily=Times New Roman;" vertex="1" parent="JfP8cFNl_0PdkYqR2XCQ-5">
          <mxGeometry x="960" width="120" height="33" as="geometry" />
        </mxCell>
        <mxCell id="JfP8cFNl_0PdkYqR2XCQ-15" value="Sender Username" style="shape=partialRectangle;html=1;whiteSpace=wrap;connectable=0;fillColor=#b0e3e6;top=0;left=0;bottom=0;right=0;overflow=hidden;strokeColor=#0e8088;fontFamily=Times New Roman;fontSize=14;" vertex="1" parent="JfP8cFNl_0PdkYqR2XCQ-5">
          <mxGeometry x="1080" width="120" height="33" as="geometry" />
        </mxCell>
        <mxCell id="JfP8cFNl_0PdkYqR2XCQ-16" value="Receiver username" style="shape=partialRectangle;html=1;whiteSpace=wrap;connectable=0;fillColor=#b0e3e6;top=0;left=0;bottom=0;right=0;overflow=hidden;strokeColor=#0e8088;fontFamily=Times New Roman;fontSize=14;" vertex="1" parent="JfP8cFNl_0PdkYqR2XCQ-5">
          <mxGeometry x="1200" width="120" height="33" as="geometry" />
        </mxCell>
        <mxCell id="JfP8cFNl_0PdkYqR2XCQ-17" value="Tag" style="shape=partialRectangle;html=1;whiteSpace=wrap;connectable=0;top=0;left=0;bottom=0;right=0;overflow=hidden;fontSize=14;fontFamily=Times New Roman;" vertex="1" parent="JfP8cFNl_0PdkYqR2XCQ-5">
          <mxGeometry x="1320" width="120" height="33" as="geometry" />
        </mxCell>
        <mxCell id="JfP8cFNl_0PdkYqR2XCQ-18" value="" style="shape=table;html=1;whiteSpace=wrap;startSize=0;container=1;collapsible=0;childLayout=tableLayout;fontFamily=Times New Roman;fontSize=14;" vertex="1" parent="1">
          <mxGeometry y="1190" width="1200" height="33" as="geometry" />
        </mxCell>
        <mxCell id="JfP8cFNl_0PdkYqR2XCQ-19" value="" style="shape=partialRectangle;html=1;whiteSpace=wrap;collapsible=0;dropTarget=0;pointerEvents=0;fillColor=none;top=0;left=0;bottom=0;right=0;points=[[0,0.5],[1,0.5]];portConstraint=eastwest;fontFamily=Times New Roman;fontSize=14;" vertex="1" parent="JfP8cFNl_0PdkYqR2XCQ-18">
          <mxGeometry width="1200" height="33" as="geometry" />
        </mxCell>
        <mxCell id="JfP8cFNl_0PdkYqR2XCQ-20" value="Message Type: 9" style="shape=partialRectangle;html=1;whiteSpace=wrap;connectable=0;fillColor=#fff2cc;top=0;left=0;bottom=0;right=0;overflow=hidden;strokeColor=#d6b656;fontFamily=Times New Roman;fontSize=14;" vertex="1" parent="JfP8cFNl_0PdkYqR2XCQ-19">
          <mxGeometry width="120" height="33" as="geometry" />
        </mxCell>
        <mxCell id="JfP8cFNl_0PdkYqR2XCQ-21" value="Counter&lt;sub&gt;As&lt;/sub&gt;" style="shape=partialRectangle;html=1;whiteSpace=wrap;connectable=0;fillColor=#fff2cc;top=0;left=0;bottom=0;right=0;overflow=hidden;strokeColor=#d6b656;fontFamily=Times New Roman;fontSize=14;" vertex="1" parent="JfP8cFNl_0PdkYqR2XCQ-19">
          <mxGeometry x="120" width="120" height="33" as="geometry" />
        </mxCell>
        <mxCell id="JfP8cFNl_0PdkYqR2XCQ-22" value="GCM IV" style="shape=partialRectangle;html=1;whiteSpace=wrap;connectable=0;fillColor=#fff2cc;top=0;left=0;bottom=0;right=0;overflow=hidden;strokeColor=#d6b656;fontFamily=Times New Roman;fontSize=14;" vertex="1" parent="JfP8cFNl_0PdkYqR2XCQ-19">
          <mxGeometry x="240" width="120" height="33" as="geometry" />
        </mxCell>
        <mxCell id="JfP8cFNl_0PdkYqR2XCQ-23" value="Counter&lt;sub&gt;Ab&lt;/sub&gt;" style="shape=partialRectangle;html=1;whiteSpace=wrap;connectable=0;top=0;left=0;bottom=0;right=0;overflow=hidden;fontSize=14;fillColor=#f8cecc;strokeColor=#b85450;fontFamily=Times New Roman;" vertex="1" parent="JfP8cFNl_0PdkYqR2XCQ-19">
          <mxGeometry x="360" width="120" height="33" as="geometry" />
        </mxCell>
        <mxCell id="JfP8cFNl_0PdkYqR2XCQ-24" value="&lt;span&gt;GCM IV&lt;/span&gt;" style="shape=partialRectangle;html=1;whiteSpace=wrap;connectable=0;top=0;left=0;bottom=0;right=0;overflow=hidden;fontSize=14;fillColor=#f8cecc;strokeColor=#b85450;fontFamily=Times New Roman;" vertex="1" parent="JfP8cFNl_0PdkYqR2XCQ-19">
          <mxGeometry x="480" width="120" height="33" as="geometry" />
        </mxCell>
        <mxCell id="JfP8cFNl_0PdkYqR2XCQ-25" value="&amp;lt;H(&lt;span&gt;g&lt;/span&gt;&lt;sup style=&quot;font-size: 14px&quot;&gt;b&#39;&lt;/sup&gt;&lt;span&gt;&amp;nbsp;g&lt;/span&gt;&lt;sup style=&quot;font-size: 14px&quot;&gt;a&#39;&lt;/sup&gt;&lt;font style=&quot;font-size: 14px&quot;&gt;)&lt;/font&gt;&amp;gt;&lt;font style=&quot;font-size: 11px&quot;&gt;&lt;sub&gt;A&lt;/sub&gt;&lt;/font&gt;" style="shape=partialRectangle;html=1;whiteSpace=wrap;connectable=0;top=0;left=0;bottom=0;right=0;overflow=hidden;fontSize=14;fillColor=#d5e8d4;strokeColor=#82b366;fontFamily=Times New Roman;" vertex="1" parent="JfP8cFNl_0PdkYqR2XCQ-19">
          <mxGeometry x="600" width="120" height="33" as="geometry" />
        </mxCell>
        <mxCell id="JfP8cFNl_0PdkYqR2XCQ-26" value="Tag" style="shape=partialRectangle;html=1;whiteSpace=wrap;connectable=0;top=0;left=0;bottom=0;right=0;overflow=hidden;fontSize=14;fontFamily=Times New Roman;" vertex="1" parent="JfP8cFNl_0PdkYqR2XCQ-19">
          <mxGeometry x="720" width="120" height="33" as="geometry" />
        </mxCell>
        <mxCell id="JfP8cFNl_0PdkYqR2XCQ-27" value="Sender Username" style="shape=partialRectangle;html=1;whiteSpace=wrap;connectable=0;fillColor=#b0e3e6;top=0;left=0;bottom=0;right=0;overflow=hidden;strokeColor=#0e8088;fontFamily=Times New Roman;fontSize=14;" vertex="1" parent="JfP8cFNl_0PdkYqR2XCQ-19">
          <mxGeometry x="840" width="120" height="33" as="geometry" />
        </mxCell>
        <mxCell id="JfP8cFNl_0PdkYqR2XCQ-28" value="Receiver username" style="shape=partialRectangle;html=1;whiteSpace=wrap;connectable=0;fillColor=#b0e3e6;top=0;left=0;bottom=0;right=0;overflow=hidden;strokeColor=#0e8088;fontFamily=Times New Roman;fontSize=14;" vertex="1" parent="JfP8cFNl_0PdkYqR2XCQ-19">
          <mxGeometry x="960" width="120" height="33" as="geometry" />
        </mxCell>
        <mxCell id="JfP8cFNl_0PdkYqR2XCQ-29" value="Tag" style="shape=partialRectangle;html=1;whiteSpace=wrap;connectable=0;top=0;left=0;bottom=0;right=0;overflow=hidden;fontSize=14;fontFamily=Times New Roman;" vertex="1" parent="JfP8cFNl_0PdkYqR2XCQ-19">
          <mxGeometry x="1080" width="120" height="33" as="geometry" />
        </mxCell>
        <mxCell id="JfP8cFNl_0PdkYqR2XCQ-30" value="" style="shape=table;html=1;whiteSpace=wrap;startSize=0;container=1;collapsible=0;childLayout=tableLayout;fontFamily=Times New Roman;fontSize=14;" vertex="1" parent="1">
          <mxGeometry y="950" width="1320" height="33" as="geometry" />
        </mxCell>
        <mxCell id="JfP8cFNl_0PdkYqR2XCQ-31" value="" style="shape=partialRectangle;html=1;whiteSpace=wrap;collapsible=0;dropTarget=0;pointerEvents=0;fillColor=none;top=0;left=0;bottom=0;right=0;points=[[0,0.5],[1,0.5]];portConstraint=eastwest;fontFamily=Times New Roman;fontSize=14;" vertex="1" parent="JfP8cFNl_0PdkYqR2XCQ-30">
          <mxGeometry width="1320" height="33" as="geometry" />
        </mxCell>
        <mxCell id="JfP8cFNl_0PdkYqR2XCQ-32" value="Message Type: 7" style="shape=partialRectangle;html=1;whiteSpace=wrap;connectable=0;fillColor=#fff2cc;top=0;left=0;bottom=0;right=0;overflow=hidden;strokeColor=#d6b656;fontFamily=Times New Roman;fontSize=14;" vertex="1" parent="JfP8cFNl_0PdkYqR2XCQ-31">
          <mxGeometry width="120" height="33" as="geometry" />
        </mxCell>
        <mxCell id="JfP8cFNl_0PdkYqR2XCQ-33" value="Counter&lt;sub&gt;Bs&lt;/sub&gt;" style="shape=partialRectangle;html=1;whiteSpace=wrap;connectable=0;fillColor=#fff2cc;top=0;left=0;bottom=0;right=0;overflow=hidden;strokeColor=#d6b656;fontFamily=Times New Roman;fontSize=14;" vertex="1" parent="JfP8cFNl_0PdkYqR2XCQ-31">
          <mxGeometry x="120" width="120" height="33" as="geometry" />
        </mxCell>
        <mxCell id="JfP8cFNl_0PdkYqR2XCQ-34" value="GCM IV" style="shape=partialRectangle;html=1;whiteSpace=wrap;connectable=0;fillColor=#fff2cc;top=0;left=0;bottom=0;right=0;overflow=hidden;strokeColor=#d6b656;fontFamily=Times New Roman;fontSize=14;" vertex="1" parent="JfP8cFNl_0PdkYqR2XCQ-31">
          <mxGeometry x="240" width="120" height="33" as="geometry" />
        </mxCell>
        <mxCell id="JfP8cFNl_0PdkYqR2XCQ-35" value="g&lt;span style=&quot;font-size: 14px;&quot;&gt;&lt;sup style=&quot;font-size: 14px;&quot;&gt;b&#39;&lt;/sup&gt;&lt;/span&gt;" style="shape=partialRectangle;html=1;whiteSpace=wrap;connectable=0;fillColor=#fff2cc;top=0;left=0;bottom=0;right=0;overflow=hidden;strokeColor=#d6b656;fontFamily=Times New Roman;fontSize=14;" vertex="1" parent="JfP8cFNl_0PdkYqR2XCQ-31">
          <mxGeometry x="360" width="120" height="33" as="geometry" />
        </mxCell>
        <mxCell id="JfP8cFNl_0PdkYqR2XCQ-36" value="Counter&lt;sub&gt;Ba&lt;/sub&gt;" style="shape=partialRectangle;html=1;whiteSpace=wrap;connectable=0;top=0;left=0;bottom=0;right=0;overflow=hidden;fontSize=14;fillColor=#f8cecc;strokeColor=#b85450;fontFamily=Times New Roman;" vertex="1" parent="JfP8cFNl_0PdkYqR2XCQ-31">
          <mxGeometry x="480" width="120" height="33" as="geometry" />
        </mxCell>
        <mxCell id="JfP8cFNl_0PdkYqR2XCQ-37" value="GCM IV" style="shape=partialRectangle;html=1;whiteSpace=wrap;connectable=0;top=0;left=0;bottom=0;right=0;overflow=hidden;fontSize=14;fillColor=#f8cecc;strokeColor=#b85450;fontFamily=Times New Roman;" vertex="1" parent="JfP8cFNl_0PdkYqR2XCQ-31">
          <mxGeometry x="600" width="120" height="33" as="geometry" />
        </mxCell>
        <mxCell id="JfP8cFNl_0PdkYqR2XCQ-38" value="&lt;font&gt;&amp;lt;H(g&lt;sup style=&quot;font-size: 14px&quot;&gt;a&#39;&lt;/sup&gt;,&amp;nbsp;g&lt;sup style=&quot;font-size: 14px&quot;&gt;b&#39;&lt;/sup&gt;&lt;font style=&quot;font-size: 14px&quot;&gt;)&lt;/font&gt;&lt;/font&gt;&amp;gt;&lt;sub&gt;&lt;font style=&quot;font-size: 11px&quot;&gt;B&lt;/font&gt;&lt;/sub&gt;" style="shape=partialRectangle;html=1;whiteSpace=wrap;connectable=0;top=0;left=0;bottom=0;right=0;overflow=hidden;fontSize=14;fillColor=#d5e8d4;strokeColor=#82b366;fontFamily=Times New Roman;" vertex="1" parent="JfP8cFNl_0PdkYqR2XCQ-31">
          <mxGeometry x="720" width="120" height="33" as="geometry" />
        </mxCell>
        <mxCell id="JfP8cFNl_0PdkYqR2XCQ-39" value="Tag" style="shape=partialRectangle;html=1;whiteSpace=wrap;connectable=0;top=0;left=0;bottom=0;right=0;overflow=hidden;fontSize=14;fontFamily=Times New Roman;" vertex="1" parent="JfP8cFNl_0PdkYqR2XCQ-31">
          <mxGeometry x="840" width="120" height="33" as="geometry" />
        </mxCell>
        <mxCell id="JfP8cFNl_0PdkYqR2XCQ-40" value="Sender Username" style="shape=partialRectangle;html=1;whiteSpace=wrap;connectable=0;fillColor=#b0e3e6;top=0;left=0;bottom=0;right=0;overflow=hidden;strokeColor=#0e8088;fontFamily=Times New Roman;fontSize=14;" vertex="1" parent="JfP8cFNl_0PdkYqR2XCQ-31">
          <mxGeometry x="960" width="120" height="33" as="geometry" />
        </mxCell>
        <mxCell id="JfP8cFNl_0PdkYqR2XCQ-41" value="Receiver username" style="shape=partialRectangle;html=1;whiteSpace=wrap;connectable=0;fillColor=#b0e3e6;top=0;left=0;bottom=0;right=0;overflow=hidden;strokeColor=#0e8088;fontFamily=Times New Roman;fontSize=14;" vertex="1" parent="JfP8cFNl_0PdkYqR2XCQ-31">
          <mxGeometry x="1080" width="120" height="33" as="geometry" />
        </mxCell>
        <mxCell id="JfP8cFNl_0PdkYqR2XCQ-42" value="Tag" style="shape=partialRectangle;html=1;whiteSpace=wrap;connectable=0;top=0;left=0;bottom=0;right=0;overflow=hidden;fontFamily=Times New Roman;fontSize=14;" vertex="1" parent="JfP8cFNl_0PdkYqR2XCQ-31">
          <mxGeometry x="1200" width="120" height="33" as="geometry" />
        </mxCell>
        <mxCell id="JfP8cFNl_0PdkYqR2XCQ-43" value="" style="shape=table;html=1;whiteSpace=wrap;startSize=0;container=1;collapsible=0;childLayout=tableLayout;fontFamily=Times New Roman;fontSize=14;" vertex="1" parent="1">
          <mxGeometry y="1300" width="1320" height="33" as="geometry" />
        </mxCell>
        <mxCell id="JfP8cFNl_0PdkYqR2XCQ-44" value="" style="shape=partialRectangle;html=1;whiteSpace=wrap;collapsible=0;dropTarget=0;pointerEvents=0;fillColor=none;top=0;left=0;bottom=0;right=0;points=[[0,0.5],[1,0.5]];portConstraint=eastwest;fontFamily=Times New Roman;fontSize=14;" vertex="1" parent="JfP8cFNl_0PdkYqR2XCQ-43">
          <mxGeometry width="1320" height="33" as="geometry" />
        </mxCell>
        <mxCell id="JfP8cFNl_0PdkYqR2XCQ-45" value="Message Type: 10" style="shape=partialRectangle;html=1;whiteSpace=wrap;connectable=0;fillColor=#fff2cc;top=0;left=0;bottom=0;right=0;overflow=hidden;strokeColor=#d6b656;fontFamily=Times New Roman;fontSize=14;" vertex="1" parent="JfP8cFNl_0PdkYqR2XCQ-44">
          <mxGeometry width="120" height="33" as="geometry" />
        </mxCell>
        <mxCell id="JfP8cFNl_0PdkYqR2XCQ-46" value="Counter&lt;sub&gt;Sb&lt;/sub&gt;" style="shape=partialRectangle;html=1;whiteSpace=wrap;connectable=0;fillColor=#fff2cc;top=0;left=0;bottom=0;right=0;overflow=hidden;strokeColor=#d6b656;fontFamily=Times New Roman;fontSize=14;" vertex="1" parent="JfP8cFNl_0PdkYqR2XCQ-44">
          <mxGeometry x="120" width="120" height="33" as="geometry" />
        </mxCell>
        <mxCell id="JfP8cFNl_0PdkYqR2XCQ-47" value="GCM IV" style="shape=partialRectangle;html=1;whiteSpace=wrap;connectable=0;fillColor=#fff2cc;top=0;left=0;bottom=0;right=0;overflow=hidden;strokeColor=#d6b656;fontFamily=Times New Roman;fontSize=14;" vertex="1" parent="JfP8cFNl_0PdkYqR2XCQ-44">
          <mxGeometry x="240" width="120" height="33" as="geometry" />
        </mxCell>
        <mxCell id="JfP8cFNl_0PdkYqR2XCQ-48" value="RSA Public Key A" style="shape=partialRectangle;html=1;whiteSpace=wrap;connectable=0;fillColor=#fff2cc;top=0;left=0;bottom=0;right=0;overflow=hidden;strokeColor=#d6b656;fontFamily=Times New Roman;fontSize=14;" vertex="1" parent="JfP8cFNl_0PdkYqR2XCQ-44">
          <mxGeometry x="360" width="120" height="33" as="geometry" />
        </mxCell>
        <mxCell id="JfP8cFNl_0PdkYqR2XCQ-49" value="Counter&lt;sub&gt;Ab&lt;/sub&gt;" style="shape=partialRectangle;html=1;whiteSpace=wrap;connectable=0;top=0;left=0;bottom=0;right=0;overflow=hidden;fontSize=14;fillColor=#f8cecc;strokeColor=#b85450;fontFamily=Times New Roman;" vertex="1" parent="JfP8cFNl_0PdkYqR2XCQ-44">
          <mxGeometry x="480" width="120" height="33" as="geometry" />
        </mxCell>
        <mxCell id="JfP8cFNl_0PdkYqR2XCQ-50" value="&lt;span&gt;GCM IV&lt;/span&gt;" style="shape=partialRectangle;html=1;whiteSpace=wrap;connectable=0;top=0;left=0;bottom=0;right=0;overflow=hidden;fontSize=14;fillColor=#f8cecc;strokeColor=#b85450;fontFamily=Times New Roman;" vertex="1" parent="JfP8cFNl_0PdkYqR2XCQ-44">
          <mxGeometry x="600" width="120" height="33" as="geometry" />
        </mxCell>
        <mxCell id="JfP8cFNl_0PdkYqR2XCQ-51" value="&amp;lt;H(&lt;span&gt;g&lt;/span&gt;&lt;sup style=&quot;font-size: 14px&quot;&gt;b&#39;&lt;/sup&gt;&lt;span&gt;&amp;nbsp;g&lt;/span&gt;&lt;sup style=&quot;font-size: 14px&quot;&gt;a&#39;&lt;/sup&gt;&lt;font style=&quot;font-size: 14px&quot;&gt;)&lt;/font&gt;&amp;gt;&lt;font style=&quot;font-size: 11px&quot;&gt;&lt;sub&gt;A&lt;/sub&gt;&lt;/font&gt;" style="shape=partialRectangle;html=1;whiteSpace=wrap;connectable=0;top=0;left=0;bottom=0;right=0;overflow=hidden;fontSize=14;fillColor=#d5e8d4;strokeColor=#82b366;fontFamily=Times New Roman;" vertex="1" parent="JfP8cFNl_0PdkYqR2XCQ-44">
          <mxGeometry x="720" width="120" height="33" as="geometry" />
        </mxCell>
        <mxCell id="JfP8cFNl_0PdkYqR2XCQ-52" value="Tag" style="shape=partialRectangle;html=1;whiteSpace=wrap;connectable=0;top=0;left=0;bottom=0;right=0;overflow=hidden;fontSize=14;fontFamily=Times New Roman;" vertex="1" parent="JfP8cFNl_0PdkYqR2XCQ-44">
          <mxGeometry x="840" width="120" height="33" as="geometry" />
        </mxCell>
        <mxCell id="JfP8cFNl_0PdkYqR2XCQ-53" value="Sender Username" style="shape=partialRectangle;html=1;whiteSpace=wrap;connectable=0;fillColor=#b0e3e6;top=0;left=0;bottom=0;right=0;overflow=hidden;strokeColor=#0e8088;fontFamily=Times New Roman;fontSize=14;" vertex="1" parent="JfP8cFNl_0PdkYqR2XCQ-44">
          <mxGeometry x="960" width="120" height="33" as="geometry" />
        </mxCell>
        <mxCell id="JfP8cFNl_0PdkYqR2XCQ-54" value="Receiver username" style="shape=partialRectangle;html=1;whiteSpace=wrap;connectable=0;fillColor=#b0e3e6;top=0;left=0;bottom=0;right=0;overflow=hidden;strokeColor=#0e8088;fontFamily=Times New Roman;fontSize=14;" vertex="1" parent="JfP8cFNl_0PdkYqR2XCQ-44">
          <mxGeometry x="1080" width="120" height="33" as="geometry" />
        </mxCell>
        <mxCell id="JfP8cFNl_0PdkYqR2XCQ-55" value="Tag" style="shape=partialRectangle;html=1;whiteSpace=wrap;connectable=0;top=0;left=0;bottom=0;right=0;overflow=hidden;fontSize=14;fontFamily=Times New Roman;" vertex="1" parent="JfP8cFNl_0PdkYqR2XCQ-44">
          <mxGeometry x="1200" width="120" height="33" as="geometry" />
        </mxCell>
        <mxCell id="JfP8cFNl_0PdkYqR2XCQ-56" value="" style="endArrow=classic;startArrow=classic;html=1;fontFamily=Times New Roman;fontSize=14;" edge="1" parent="1">
          <mxGeometry width="50" height="50" relative="1" as="geometry">
            <mxPoint x="-4.547473508864641e-13" y="1020" as="sourcePoint" />
            <mxPoint x="960" y="1020" as="targetPoint" />
          </mxGeometry>
        </mxCell>
        <mxCell id="JfP8cFNl_0PdkYqR2XCQ-57" value="Outer AAD" style="edgeLabel;html=1;align=center;verticalAlign=middle;resizable=0;points=[];fontFamily=Times New Roman;fontSize=14;" vertex="1" connectable="0" parent="JfP8cFNl_0PdkYqR2XCQ-56">
          <mxGeometry x="-0.1556" relative="1" as="geometry">
            <mxPoint x="54" as="offset" />
          </mxGeometry>
        </mxCell>
        <mxCell id="JfP8cFNl_0PdkYqR2XCQ-58" value="" style="endArrow=classic;startArrow=classic;html=1;fontFamily=Times New Roman;fontSize=14;" edge="1" parent="1">
          <mxGeometry width="50" height="50" relative="1" as="geometry">
            <mxPoint x="479.9999999999991" y="1000" as="sourcePoint" />
            <mxPoint x="720" y="1000" as="targetPoint" />
          </mxGeometry>
        </mxCell>
        <mxCell id="JfP8cFNl_0PdkYqR2XCQ-59" value="Inner AAD" style="edgeLabel;html=1;align=center;verticalAlign=middle;resizable=0;points=[];fontFamily=Times New Roman;fontSize=14;" vertex="1" connectable="0" parent="JfP8cFNl_0PdkYqR2XCQ-58">
          <mxGeometry x="-0.1556" relative="1" as="geometry">
            <mxPoint x="23" as="offset" />
          </mxGeometry>
        </mxCell>
        <mxCell id="JfP8cFNl_0PdkYqR2XCQ-60" value="" style="endArrow=classic;startArrow=classic;html=1;fontFamily=Times New Roman;fontSize=14;" edge="1" parent="1">
          <mxGeometry width="50" height="50" relative="1" as="geometry">
            <mxPoint y="1140" as="sourcePoint" />
            <mxPoint x="1080" y="1140" as="targetPoint" />
          </mxGeometry>
        </mxCell>
        <mxCell id="JfP8cFNl_0PdkYqR2XCQ-61" value="Outer AAD" style="edgeLabel;html=1;align=center;verticalAlign=middle;resizable=0;points=[];fontFamily=Times New Roman;fontSize=14;" vertex="1" connectable="0" parent="JfP8cFNl_0PdkYqR2XCQ-60">
          <mxGeometry x="-0.1556" relative="1" as="geometry">
            <mxPoint x="54" as="offset" />
          </mxGeometry>
        </mxCell>
        <mxCell id="JfP8cFNl_0PdkYqR2XCQ-62" value="" style="endArrow=classic;startArrow=classic;html=1;fontFamily=Times New Roman;fontSize=14;" edge="1" parent="1">
          <mxGeometry width="50" height="50" relative="1" as="geometry">
            <mxPoint x="600" y="1120" as="sourcePoint" />
            <mxPoint x="840" y="1120" as="targetPoint" />
          </mxGeometry>
        </mxCell>
        <mxCell id="JfP8cFNl_0PdkYqR2XCQ-63" value="Inner AAD" style="edgeLabel;html=1;align=center;verticalAlign=middle;resizable=0;points=[];fontFamily=Times New Roman;fontSize=14;" vertex="1" connectable="0" parent="JfP8cFNl_0PdkYqR2XCQ-62">
          <mxGeometry x="-0.1556" relative="1" as="geometry">
            <mxPoint x="23" as="offset" />
          </mxGeometry>
        </mxCell>
        <mxCell id="JfP8cFNl_0PdkYqR2XCQ-64" value="" style="endArrow=classic;startArrow=classic;html=1;fontFamily=Times New Roman;fontSize=14;" edge="1" parent="1">
          <mxGeometry width="50" height="50" relative="1" as="geometry">
            <mxPoint x="-4.547473508864641e-13" y="1260" as="sourcePoint" />
            <mxPoint x="840" y="1260" as="targetPoint" />
          </mxGeometry>
        </mxCell>
        <mxCell id="JfP8cFNl_0PdkYqR2XCQ-65" value="Outer AAD" style="edgeLabel;html=1;align=center;verticalAlign=middle;resizable=0;points=[];fontFamily=Times New Roman;fontSize=14;" vertex="1" connectable="0" parent="JfP8cFNl_0PdkYqR2XCQ-64">
          <mxGeometry x="-0.1556" relative="1" as="geometry">
            <mxPoint x="54" as="offset" />
          </mxGeometry>
        </mxCell>
        <mxCell id="JfP8cFNl_0PdkYqR2XCQ-66" value="" style="endArrow=classic;startArrow=classic;html=1;fontFamily=Times New Roman;fontSize=14;" edge="1" parent="1">
          <mxGeometry width="50" height="50" relative="1" as="geometry">
            <mxPoint x="359.9999999999991" y="1240" as="sourcePoint" />
            <mxPoint x="600" y="1240" as="targetPoint" />
          </mxGeometry>
        </mxCell>
        <mxCell id="JfP8cFNl_0PdkYqR2XCQ-67" value="Inner AAD" style="edgeLabel;html=1;align=center;verticalAlign=middle;resizable=0;points=[];fontFamily=Times New Roman;fontSize=14;" vertex="1" connectable="0" parent="JfP8cFNl_0PdkYqR2XCQ-66">
          <mxGeometry x="-0.1556" relative="1" as="geometry">
            <mxPoint x="23" as="offset" />
          </mxGeometry>
        </mxCell>
        <mxCell id="JfP8cFNl_0PdkYqR2XCQ-68" value="" style="endArrow=classic;startArrow=classic;html=1;fontFamily=Times New Roman;fontSize=14;" edge="1" parent="1">
          <mxGeometry width="50" height="50" relative="1" as="geometry">
            <mxPoint x="-4.547473508864641e-13" y="1371" as="sourcePoint" />
            <mxPoint x="960" y="1371" as="targetPoint" />
          </mxGeometry>
        </mxCell>
        <mxCell id="JfP8cFNl_0PdkYqR2XCQ-69" value="Outer AAD" style="edgeLabel;html=1;align=center;verticalAlign=middle;resizable=0;points=[];fontFamily=Times New Roman;fontSize=14;" vertex="1" connectable="0" parent="JfP8cFNl_0PdkYqR2XCQ-68">
          <mxGeometry x="-0.1556" relative="1" as="geometry">
            <mxPoint x="54" as="offset" />
          </mxGeometry>
        </mxCell>
        <mxCell id="JfP8cFNl_0PdkYqR2XCQ-70" value="" style="endArrow=classic;startArrow=classic;html=1;fontFamily=Times New Roman;fontSize=14;" edge="1" parent="1">
          <mxGeometry width="50" height="50" relative="1" as="geometry">
            <mxPoint x="479.9999999999991" y="1351" as="sourcePoint" />
            <mxPoint x="720" y="1351" as="targetPoint" />
          </mxGeometry>
        </mxCell>
        <mxCell id="JfP8cFNl_0PdkYqR2XCQ-71" value="Inner AAD" style="edgeLabel;html=1;align=center;verticalAlign=middle;resizable=0;points=[];fontFamily=Times New Roman;fontSize=14;" vertex="1" connectable="0" parent="JfP8cFNl_0PdkYqR2XCQ-70">
          <mxGeometry x="-0.1556" relative="1" as="geometry">
            <mxPoint x="23" as="offset" />
          </mxGeometry>
        </mxCell>
        <mxCell id="JfP8cFNl_0PdkYqR2XCQ-72" value="" style="rounded=0;whiteSpace=wrap;html=1;fillColor=#fff2cc;strokeColor=#d6b656;fontFamily=Times New Roman;fontSize=14;" vertex="1" parent="1">
          <mxGeometry x="1010" y="2600" width="50" height="20" as="geometry" />
        </mxCell>
        <mxCell id="JfP8cFNl_0PdkYqR2XCQ-73" value="" style="rounded=0;whiteSpace=wrap;html=1;fontFamily=Times New Roman;fontSize=14;" vertex="1" parent="1">
          <mxGeometry x="1010" y="2550" width="50" height="20" as="geometry" />
        </mxCell>
        <mxCell id="JfP8cFNl_0PdkYqR2XCQ-74" value="" style="rounded=0;whiteSpace=wrap;html=1;fillColor=#b0e3e6;strokeColor=#0e8088;fontFamily=Times New Roman;fontSize=14;" vertex="1" parent="1">
          <mxGeometry x="1010" y="2650" width="50" height="20" as="geometry" />
        </mxCell>
        <mxCell id="JfP8cFNl_0PdkYqR2XCQ-75" value="&lt;div style=&quot;text-align: center&quot;&gt;&lt;span style=&quot;font-size: 14px&quot;&gt;&lt;font face=&quot;times new roman&quot;&gt;Clear Message&lt;/font&gt;&lt;/span&gt;&lt;/div&gt;" style="text;whiteSpace=wrap;html=1;fontColor=none;" vertex="1" parent="1">
          <mxGeometry x="1070" y="2545" width="110" height="30" as="geometry" />
        </mxCell>
        <mxCell id="JfP8cFNl_0PdkYqR2XCQ-76" value="&lt;span style=&quot;color: rgb(0, 0, 0); font-family: &amp;quot;times new roman&amp;quot;; font-size: 14px; font-style: normal; font-weight: 400; letter-spacing: normal; text-align: center; text-indent: 0px; text-transform: none; word-spacing: 0px; background-color: rgb(248, 249, 250); display: inline; float: none;&quot;&gt;Encrypted by session key&amp;nbsp;&amp;nbsp;&lt;/span&gt;&lt;br style=&quot;color: rgb(0, 0, 0); font-family: &amp;quot;times new roman&amp;quot;; font-size: 14px; font-style: normal; font-weight: 400; letter-spacing: normal; text-align: center; text-indent: 0px; text-transform: none; word-spacing: 0px; background-color: rgb(248, 249, 250);&quot;&gt;&lt;span style=&quot;color: rgb(0, 0, 0); font-family: &amp;quot;times new roman&amp;quot;; font-size: 14px; font-style: normal; font-weight: 400; letter-spacing: normal; text-align: center; text-indent: 0px; text-transform: none; word-spacing: 0px; background-color: rgb(248, 249, 250); display: inline; float: none;&quot;&gt;between client and the server&lt;/span&gt;" style="text;whiteSpace=wrap;html=1;fontColor=none;" vertex="1" parent="1">
          <mxGeometry x="1070" y="2640" width="190" height="40" as="geometry" />
        </mxCell>
        <mxCell id="JfP8cFNl_0PdkYqR2XCQ-77" value="&lt;span style=&quot;color: rgb(0 , 0 , 0) ; font-family: &amp;#34;times new roman&amp;#34; ; font-size: 14px ; font-style: normal ; font-weight: 400 ; letter-spacing: normal ; text-align: center ; text-indent: 0px ; text-transform: none ; word-spacing: 0px ; background-color: rgb(248 , 249 , 250) ; display: inline ; float: none&quot;&gt;Authenticated by session key&amp;nbsp;&amp;nbsp;&lt;/span&gt;&lt;br style=&quot;color: rgb(0 , 0 , 0) ; font-family: &amp;#34;times new roman&amp;#34; ; font-size: 14px ; font-style: normal ; font-weight: 400 ; letter-spacing: normal ; text-align: center ; text-indent: 0px ; text-transform: none ; word-spacing: 0px ; background-color: rgb(248 , 249 , 250)&quot;&gt;&lt;span style=&quot;color: rgb(0 , 0 , 0) ; font-family: &amp;#34;times new roman&amp;#34; ; font-size: 14px ; font-style: normal ; font-weight: 400 ; letter-spacing: normal ; text-align: center ; text-indent: 0px ; text-transform: none ; word-spacing: 0px ; background-color: rgb(248 , 249 , 250) ; display: inline ; float: none&quot;&gt;between client and the server&lt;/span&gt;" style="text;whiteSpace=wrap;html=1;fontColor=none;" vertex="1" parent="1">
          <mxGeometry x="1070" y="2590" width="190" height="40" as="geometry" />
        </mxCell>
        <mxCell id="JfP8cFNl_0PdkYqR2XCQ-78" value="" style="rounded=0;whiteSpace=wrap;html=1;fillColor=#f8cecc;strokeColor=#b85450;fontFamily=Times New Roman;fontSize=14;" vertex="1" parent="1">
          <mxGeometry x="1010" y="2700" width="50" height="20" as="geometry" />
        </mxCell>
        <mxCell id="JfP8cFNl_0PdkYqR2XCQ-79" value="&lt;span style=&quot;color: rgb(0 , 0 , 0) ; font-family: &amp;#34;times new roman&amp;#34; ; font-size: 14px ; font-style: normal ; font-weight: 400 ; letter-spacing: normal ; text-align: center ; text-indent: 0px ; text-transform: none ; word-spacing: 0px ; background-color: rgb(248 , 249 , 250) ; display: inline ; float: none&quot;&gt;Authenticated&amp;nbsp; by session key&amp;nbsp;&amp;nbsp;&lt;/span&gt;&lt;br style=&quot;color: rgb(0 , 0 , 0) ; font-family: &amp;#34;times new roman&amp;#34; ; font-size: 14px ; font-style: normal ; font-weight: 400 ; letter-spacing: normal ; text-align: center ; text-indent: 0px ; text-transform: none ; word-spacing: 0px ; background-color: rgb(248 , 249 , 250)&quot;&gt;&lt;span style=&quot;color: rgb(0 , 0 , 0) ; font-family: &amp;#34;times new roman&amp;#34; ; font-size: 14px ; font-style: normal ; font-weight: 400 ; letter-spacing: normal ; text-align: center ; text-indent: 0px ; text-transform: none ; word-spacing: 0px ; background-color: rgb(248 , 249 , 250) ; display: inline ; float: none&quot;&gt;between two clients&lt;/span&gt;" style="text;whiteSpace=wrap;html=1;fontColor=none;" vertex="1" parent="1">
          <mxGeometry x="1070" y="2695" width="190" height="40" as="geometry" />
        </mxCell>
        <mxCell id="JfP8cFNl_0PdkYqR2XCQ-80" value="" style="rounded=0;whiteSpace=wrap;html=1;fillColor=#d5e8d4;strokeColor=#82b366;fontFamily=Times New Roman;fontSize=14;" vertex="1" parent="1">
          <mxGeometry x="1010" y="2750" width="50" height="20" as="geometry" />
        </mxCell>
        <mxCell id="JfP8cFNl_0PdkYqR2XCQ-81" value="&lt;span style=&quot;color: rgb(0 , 0 , 0) ; font-family: &amp;#34;times new roman&amp;#34; ; font-size: 14px ; font-style: normal ; font-weight: 400 ; letter-spacing: normal ; text-align: center ; text-indent: 0px ; text-transform: none ; word-spacing: 0px ; background-color: rgb(248 , 249 , 250) ; display: inline ; float: none&quot;&gt;Encrypted by session key&amp;nbsp;&amp;nbsp;&lt;/span&gt;&lt;br style=&quot;color: rgb(0 , 0 , 0) ; font-family: &amp;#34;times new roman&amp;#34; ; font-size: 14px ; font-style: normal ; font-weight: 400 ; letter-spacing: normal ; text-align: center ; text-indent: 0px ; text-transform: none ; word-spacing: 0px ; background-color: rgb(248 , 249 , 250)&quot;&gt;&lt;span style=&quot;color: rgb(0 , 0 , 0) ; font-family: &amp;#34;times new roman&amp;#34; ; font-size: 14px ; font-style: normal ; font-weight: 400 ; letter-spacing: normal ; text-align: center ; text-indent: 0px ; text-transform: none ; word-spacing: 0px ; background-color: rgb(248 , 249 , 250) ; display: inline ; float: none&quot;&gt;between two clients&lt;/span&gt;" style="text;whiteSpace=wrap;html=1;fontColor=none;" vertex="1" parent="1">
          <mxGeometry x="1070" y="2740" width="190" height="40" as="geometry" />
        </mxCell>
      </root>
    </mxGraphModel>
  </diagram>
</mxfile>
